<svg xmlns="http://www.w3.org/2000/svg" xmlns:xlink="http://www.w3.org/1999/xlink" id="_x31_" x="0px" y="0px" viewBox="0 0 50.859 48" style="enable-background:new 0 0 50.859 48;" xml:space="preserve">
<path style="fill-rule:evenodd;clip-rule:evenodd;fill:#1A171B;" d="M39.625,11.191l-0.118-0.029V7.559l0.121-0.027  c0.708-0.158,1.35-0.522,1.855-1.043c0.694-0.717,1.078-1.675,1.078-2.673c0.001-0.995-0.386-1.963-1.079-2.679  C40.783,0.416,39.836,0,38.829,0H17.542c-1.008,0-1.957,0.416-2.657,1.138c-0.694,0.717-1.078,1.675-1.079,2.672  c0,0.997,0.387,1.964,1.08,2.679c0.505,0.52,1.147,0.885,1.855,1.043l0.121,0.026v4.952l-0.107,0.034  C12.392,13.973,4.872,17.43,4.872,22.94v3.573H1.548C0.693,26.513,0,27.206,0,28.062c0,1.322,0.007,2.645,0.007,3.969  c0,0.85,0.69,1.548,1.541,1.548h3.324v8.593c0,1.551,0.623,3.024,1.718,4.119C7.678,47.377,9.162,48,10.701,48h34.33  c1.543,0,3.028-0.628,4.118-1.718c1.092-1.093,1.711-2.562,1.711-4.107V22.94C50.859,16.132,45.701,12.661,39.625,11.191z   M4.872,30.482H3.09V29.61h1.782V30.482z M17.098,3.291c0.117-0.12,0.275-0.194,0.444-0.194h21.283c0.169,0,0.328,0.073,0.444,0.193  c0.136,0.14,0.21,0.331,0.21,0.526c0,0.194-0.074,0.382-0.209,0.521c-0.117,0.121-0.273,0.194-0.443,0.194h-0.869  c-0.855,0-1.548,0.693-1.548,1.548v9.777l-0.176-0.025c-0.309-0.044-0.619-0.082-0.93-0.116c-4.944-0.552-10.315-0.077-15.157,1.059  l-0.19,0.045V6.078c0-0.855-0.693-1.548-1.548-1.548h-0.868c-0.169,0-0.326-0.073-0.444-0.193c-0.137-0.141-0.21-0.33-0.21-0.527  C16.889,3.617,16.963,3.43,17.098,3.291z M16.657,15.808l0.206-0.072l-0.006,1.853l-0.108,0.035  c-1.384,0.436-2.786,1.058-4.103,1.665c-0.775,0.356-1.113,1.277-0.756,2.05c0.357,0.773,1.276,1.112,2.05,0.756  c6.083-2.804,14.354-4.05,21.027-3.308c1.288,0.143,2.575,0.366,3.828,0.697c1.132,0.297,2.242,0.686,3.293,1.202  c0.76,0.372,1.682,0.058,2.061-0.699c1.097-2.195-3.171-3.12-4.527-3.479l-0.115-0.03v-2.131l0.196,0.055  c3.86,1.091,7.384,3.301,7.965,7.348c-0.214,0.424-0.55,0.777-0.996,1.055c-0.952,0.592-2.228,0.835-3.338,0.931  c-2.506,0.215-5.496-0.195-7.874-0.991l-0.104-0.035c-1.635-0.48-3.303-0.872-5.005-1.04c-1.723-0.169-3.463-0.169-5.188-0.024  c-5.828,0.491-12.516,2.812-17.196,6.34V22.94C7.968,19.275,13.834,16.79,16.657,15.808z M46.959,44.106  c-0.512,0.513-1.202,0.798-1.928,0.798h-34.33c-0.725,0-1.422-0.291-1.935-0.804c-0.513-0.513-0.798-1.202-0.798-1.928V30.908  c1.867-1.789,4.44-3.254,6.753-4.276c3.322-1.466,7.003-2.445,10.641-2.751c1.584-0.135,3.183-0.142,4.765,0.013  c1.498,0.147,2.999,0.398,4.416,0.903l0.001-0.002l0.152,0.055h0.003c2.69,0.824,6.008,1.353,8.835,1.109  c1.436-0.123,2.976-0.462,4.228-1.191v17.403C47.762,42.896,47.472,43.594,46.959,44.106z"></path>
</svg>