<svg xmlns="http://www.w3.org/2000/svg" xmlns:xlink="http://www.w3.org/1999/xlink" id="_x31_" x="0px" y="0px" viewBox="0 0 37.658 48" style="enable-background:new 0 0 37.658 48;" xml:space="preserve">
<g>
	<path style="fill:#1A171B;" d="M37.652,10.486v-0.142c-0.001-1.075-0.426-2.099-1.186-2.86c-0.762-0.762-1.787-1.191-2.865-1.191   h-0.12L33.48,6.287h-6.121V1.08c0-0.596-0.484-1.08-1.081-1.08H11.38c-0.597,0-1.08,0.484-1.08,1.08v5.207h-6.1v0.005H4.056   c-1.075,0-2.099,0.425-2.86,1.186c-0.762,0.762-1.192,1.787-1.192,2.866v0.12L0,10.465v33.337h0.004v0.143   c0.001,1.075,0.426,2.099,1.187,2.859c0.762,0.762,1.787,1.191,2.866,1.191h0.116V48h29.286v-0.004h0.142   c1.076-0.001,2.1-0.425,2.86-1.185c0.763-0.762,1.191-1.787,1.191-2.866v-0.117h0.006V10.486H37.652z M12.46,2.16h12.738v4.127   H12.46V2.16z M2.157,10.344c0-0.503,0.202-0.983,0.558-1.338c0.357-0.357,0.836-0.562,1.342-0.562h0.143v0.004H33.48l0.001-0.004   h0.12c0.503,0,0.982,0.202,1.338,0.558c0.357,0.357,0.563,0.836,0.563,1.341v0.143h-0.005V19H2.161v-8.535l-0.004-0.001V10.344z    M26.802,36.819v0.004h-0.143c-0.473-0.001-0.917-0.2-1.244-0.54c-0.297-0.307-0.481-0.705-0.525-1.129l-0.011-0.096h-0.001v-6.575   h5.769v6.747c0,0.399-0.269,0.777-0.536,1.053c-0.328,0.34-0.771,0.54-1.246,0.54h-0.142v-0.004H26.802z M31.317,37.441   c0.645-0.668,1-1.562,1-2.49v-0.694L32.5,34.31c0.235,0.068,0.479,0.104,0.725,0.104h0.002c0.685,0,1.336-0.268,1.82-0.752   c0.186-0.186,0.329-0.402,0.449-0.629v5.187H30.19C30.609,38.04,30.992,37.778,31.317,37.441z M32.581,31.196   c0.373-0.372,0.911-0.376,1.284-0.003c0.126,0.125,0.213,0.283,0.249,0.457c0.03,0.139,0.027,0.29-0.012,0.427   c-0.043,0.151-0.122,0.288-0.233,0.399c-0.373,0.372-0.91,0.377-1.283,0.004C32.213,32.106,32.208,31.569,32.581,31.196z    M35.051,30.015c-0.486-0.486-1.139-0.756-1.825-0.756h-0.002c-0.245,0-0.489,0.034-0.724,0.102l-0.183,0.053v-1.77   c0-0.461-0.374-0.835-0.835-0.835h-0.142v-0.003h-7.295c-0.464,0-0.839,0.375-0.839,0.838c0,0.028,0.004,0.056,0.004,0.084v7.222   c0,0.929,0.354,1.824,1.001,2.492c0.324,0.336,0.707,0.598,1.126,0.777H12.221c0.418-0.179,0.801-0.442,1.126-0.777   c0.647-0.669,1.001-1.563,1.001-2.492v-7.217c0-0.029,0.004-0.059,0.004-0.088c0-0.464-0.375-0.838-0.839-0.838H6.218v0.003H6.075   c-0.461,0-0.835,0.374-0.835,0.835v1.77l-0.183-0.053c-0.235-0.069-0.479-0.102-0.723-0.102H4.331c-0.687,0-1.339,0.27-1.825,0.756   c-0.133,0.133-0.246,0.281-0.346,0.436v-9.29h33.335v9.477C35.377,30.413,35.235,30.199,35.051,30.015z M2.161,33.219   c0.101,0.158,0.215,0.308,0.35,0.443c0.484,0.483,1.135,0.752,1.82,0.752h0.002c0.245,0,0.49-0.035,0.724-0.104l0.184-0.053v0.694   c0,0.928,0.353,1.822,1,2.49c0.324,0.336,0.707,0.599,1.125,0.778H2.161V33.219z M3.692,31.192   c0.377-0.377,0.907-0.372,1.283,0.004c0.379,0.378,0.374,0.906-0.003,1.283c-0.378,0.377-0.906,0.372-1.283-0.003   C3.311,32.098,3.316,31.569,3.692,31.192z M10.898,36.823h-0.143v-0.004H8.806l-0.001,0.004H8.691   c-0.473-0.001-0.917-0.2-1.245-0.54C7.178,36.006,6.91,35.628,6.91,35.23v-6.747h5.768v6.733c-0.056,0.402-0.257,0.778-0.536,1.068   C11.814,36.623,11.371,36.822,10.898,36.823z M35.501,43.944c0,0.504-0.202,0.982-0.558,1.338   c-0.358,0.357-0.836,0.562-1.342,0.562h-0.142V45.84H4.172v0.004H4.057c-0.504,0-0.982-0.202-1.338-0.558   c-0.357-0.356-0.562-0.836-0.563-1.341v-0.143h0.004v-3.422h33.335v3.446l0.005,0.001V43.944z"></path>
	<path style="fill:#1A171B;" d="M14.046,21.957H6.722c-0.597,0-1.081,0.484-1.081,1.08c0,0.597,0.484,1.08,1.081,1.08h2.581v0.645   c0,0.596,0.485,1.08,1.081,1.08c0.597,0,1.08-0.484,1.08-1.08v-0.645h2.582c0.597,0,1.081-0.483,1.081-1.08   C15.127,22.441,14.642,21.957,14.046,21.957z"></path>
	<path style="fill:#1A171B;" d="M30.936,21.957h-7.324c-0.596,0-1.081,0.484-1.081,1.08c0,0.597,0.484,1.08,1.081,1.08h2.581v0.645   c0,0.596,0.484,1.08,1.08,1.08c0.597,0,1.08-0.484,1.08-1.08v-0.645h2.583c0.596,0,1.08-0.483,1.08-1.08   C32.016,22.441,31.532,21.957,30.936,21.957z"></path>
	<path style="fill:#1A171B;" d="M6.594,16.7h0.002c0.957,0,1.867-0.376,2.544-1.052c0.679-0.679,1.058-1.59,1.058-2.549v-0.003   c0-0.957-0.377-1.867-1.052-2.544c-0.678-0.678-1.59-1.057-2.549-1.057H6.594c-0.957,0-1.868,0.375-2.544,1.052   c-0.678,0.679-1.057,1.591-1.057,2.55v0.003c0,0.957,0.376,1.867,1.053,2.544C4.722,16.321,5.635,16.7,6.594,16.7z M5.227,11.733   c0.764-0.763,1.968-0.768,2.732-0.003c0.763,0.763,0.767,1.967,0.003,2.732c-0.763,0.762-1.967,0.766-2.731,0.003   C4.467,13.702,4.463,12.497,5.227,11.733z"></path>
	<path style="fill:#1A171B;" d="M12.561,16.694c0.81,0,1.468-0.658,1.468-1.468c0-0.811-0.657-1.469-1.468-1.469   c-0.811,0-1.468,0.658-1.468,1.469C11.093,16.036,11.75,16.694,12.561,16.694z"></path>
</g>
</svg>