<svg xmlns="http://www.w3.org/2000/svg" xmlns:xlink="http://www.w3.org/1999/xlink" id="Isolation_Mode" x="0px" y="0px" viewBox="0 0 24.335 48" style="enable-background:new 0 0 24.335 48;" xml:space="preserve">
<g>
	<path style="fill-rule:evenodd;clip-rule:evenodd;fill:#1A171B;" d="M20.178,29.241c0.451,0,0.818-0.366,0.818-0.818v-9.057   c0-0.452-0.366-0.819-0.818-0.819c-0.452,0-0.819,0.366-0.819,0.819v9.057C19.359,28.875,19.726,29.241,20.178,29.241z"></path>
	<path style="fill-rule:evenodd;clip-rule:evenodd;fill:#1A171B;" d="M23.026,0H1.309C0.586,0,0,0.586,0,1.309v30.164V46.69   C0,47.414,0.586,48,1.309,48h21.717c0.724,0,1.309-0.586,1.309-1.31V31.472V1.309C24.335,0.586,23.75,0,23.026,0z M21.718,45.382   h-19.1V32.782h19.1V45.382z M21.718,30.163h-19.1V2.617h19.1V30.163z"></path>
	<path style="fill-rule:evenodd;clip-rule:evenodd;fill:#1A171B;" d="M20.178,41.473c0.451,0,0.818-0.367,0.818-0.819v-6.592   c0-0.452-0.366-0.819-0.818-0.819c-0.452,0-0.819,0.367-0.819,0.819v6.592C19.359,41.106,19.726,41.473,20.178,41.473z"></path>
</g>
</svg>