<svg xmlns="http://www.w3.org/2000/svg" xmlns:xlink="http://www.w3.org/1999/xlink" id="_x31_" x="0px" y="0px" viewBox="0 0 48.008 48" style="enable-background:new 0 0 48.008 48;" xml:space="preserve">
<g>
	<path style="fill:#1A171B;" d="M37.835,6.877c-1.417-1.388-2.996-2.609-4.746-3.619c-2.257-1.304-4.723-2.196-7.272-2.714   c-4.266-0.869-8.839-0.739-12.652,0.715c-3.954,1.507-7.096,4.405-8.311,9.04c-0.079,0.302-0.147,0.607-0.21,0.913   c-0.246,1.201-0.471,2.306,0.309,3.572c0.411,0.667,0.995,1.21,1.703,1.549c0.133,0.07,0.278,0.126,0.418,0.174   c0.43,0.151,0.893,0.23,1.377,0.23c0,0.007,11.026-0.003,11.913-0.003c0.734,0,1.33-0.595,1.33-1.329l-0.004-1.586   c3.496,0.686,5.973,3.865,7.179,7.718c1.05,3.358,1.183,7.195,0.068,10.556c-1.224,3.688-4.002,6.484-8.58,6.484H6.549   c-0.712,0-1.302,0.567-1.329,1.284c-0.097,2.399,0.905,4.829,2.35,6.71c0.263,0.342,0.534,0.66,0.81,0.95   C8.625,47.813,8.994,48,9.405,48h35.756v-0.002c0.598,0.002,1.142-0.404,1.293-1.011C49.833,33.618,48.02,16.851,37.835,6.877z    M44.111,45.331H9.986c-0.111-0.128-0.214-0.254-0.31-0.377c-0.827-1.077-1.448-2.37-1.696-3.706h12.375   c5.941,0,9.534-3.588,11.104-8.32c1.288-3.882,1.167-8.3-0.047-12.184c-1.676-5.356-5.492-9.66-11.046-9.719   c-0.726-0.006-1.349,0.596-1.34,1.33l0.005,1.721l-10.58,0.003c-0.22,0-0.441-0.044-0.64-0.138   c-0.238-0.114-0.442-0.303-0.595-0.553c-0.285-0.464-0.041-1.262,0.057-1.744c0.047-0.23,0.099-0.456,0.157-0.677   c0.966-3.683,3.496-5.999,6.685-7.215c3.33-1.27,7.372-1.373,11.172-0.601c2.268,0.461,4.459,1.251,6.469,2.412   c1.556,0.899,2.958,1.982,4.213,3.212C45.254,17.866,46.891,33.117,44.111,45.331z"></path>
	<path style="fill:#1A171B;" d="M8.119,37.613c0.978,0.287,2.018,0.44,3.097,0.44v0.004h0.003h4.042v-0.004   c3.496,0,6.609-1.607,8.58-4.25l-0.002-0.001l0.002-0.003c0.383-0.515,0.723-1.067,1.013-1.653   c0.292-0.592,0.535-1.212,0.721-1.859l0-0.002c0.392-1.368,0.667-2.828,0.806-4.359c0.029-0.319,0.051-0.621,0.066-0.902   c0.015-0.278,0.026-0.581,0.032-0.911l0.001-0.04v-0.003v-0.008v-0.016c0-0.551-0.447-0.998-0.998-0.998H15.088v-3.255h1.862   c0.737,0,1.335-0.598,1.335-1.335c0-0.737-0.598-1.336-1.335-1.336h-5.726c-0.737,0-1.335,0.598-1.335,1.336   c0,0.737,0.598,1.335,1.335,1.335h1.862v3.255H1.018h-0.02H0.982C0.431,23.059-0.009,23.512,0,24.063   c0.024,1.564,0.194,3.078,0.489,4.515c0.059,0.286,0.122,0.566,0.189,0.84c0.077,0.318,0.15,0.593,0.215,0.824l0.013,0.045   c0.872,3.038,2.923,5.412,5.591,6.701C7.016,37.238,7.558,37.447,8.119,37.613z M2.83,29.739l-0.013-0.046   c-0.081-0.286-0.148-0.536-0.2-0.746c-0.063-0.256-0.12-0.512-0.173-0.767c-0.208-1.011-0.347-2.059-0.411-3.134h22.413   c-0.014,0.251-0.032,0.485-0.052,0.701c-0.126,1.382-0.379,2.72-0.743,3.99L23.65,29.74c-0.155,0.538-0.352,1.047-0.587,1.523   c-0.237,0.479-0.514,0.928-0.823,1.345l-0.002-0.002c-1.601,2.147-4.131,3.453-6.976,3.453v-0.004h-4.042h-0.003v0.004   c-0.878,0-1.729-0.126-2.534-0.363c-0.455-0.133-0.895-0.304-1.316-0.507C5.204,34.145,3.54,32.213,2.83,29.739z"></path>
	<path style="fill:#1A171B;" d="M17.459,35.154c1.584-0.939,2.778-2.137,3.668-3.533c0.876-1.375,1.449-2.927,1.803-4.604   c0.112-0.54-0.235-1.069-0.775-1.182c-0.54-0.112-1.068,0.235-1.18,0.775c-0.308,1.454-0.793,2.785-1.529,3.94   c-0.723,1.133-1.7,2.11-3.004,2.884c-0.475,0.281-0.632,0.894-0.351,1.368C16.371,35.278,16.984,35.435,17.459,35.154z"></path>
	<path style="fill:#1A171B;" d="M38.445,28.501c0,1.107,0.898,2.005,2.005,2.005s2.005-0.898,2.005-2.005   c0-1.107-0.897-2.005-2.005-2.005S38.445,27.393,38.445,28.501z"></path>
	<path style="fill:#1A171B;" d="M38.772,24.597c1.107,0,2.005-0.898,2.005-2.005c0-1.107-0.898-2.006-2.005-2.006   c-1.107,0-2.004,0.899-2.004,2.006C36.767,23.699,37.665,24.597,38.772,24.597z"></path>
	<path style="fill:#1A171B;" d="M42.449,33.334c-0.323-0.445-0.947-0.543-1.392-0.218l-0.195,0.143   c-0.737-0.614-1.685-0.984-2.718-0.984v-0.003h-0.001H38.14v0.003c-1.174,0.001-2.235,0.475-3.002,1.242   c-0.77,0.77-1.246,1.834-1.247,3.009h-0.003v0.001v0.002h0.003c0.001,1.173,0.476,2.235,1.243,3.002   c0.77,0.77,1.833,1.246,3.008,1.246v0.004h0.001h0.002v-0.004c1.174,0,2.235-0.475,3.002-1.242c0.77-0.769,1.246-1.833,1.247-3.007   h0.003v-0.002h-0.003c-0.001-0.593-0.122-1.157-0.34-1.669l0.178-0.129C42.675,34.402,42.773,33.779,42.449,33.334z M40.398,36.528   c0,0.622-0.252,1.185-0.66,1.592c-0.409,0.41-0.973,0.664-1.594,0.664v-0.004h-0.002h-0.001v0.004c-0.622,0-1.185-0.253-1.592-0.66   c-0.41-0.41-0.663-0.974-0.663-1.594h0.004v-0.002v-0.001h-0.004c0-0.623,0.252-1.185,0.66-1.592   c0.409-0.41,0.973-0.664,1.595-0.664v0.004h0.002h0.001v-0.004c0.362,0,0.704,0.085,1.007,0.237l-1.109,0.81   c-0.445,0.324-0.543,0.948-0.219,1.393c0.324,0.444,0.947,0.542,1.392,0.218l1.142-0.834c0.027,0.138,0.042,0.283,0.042,0.43   h-0.004v0.002H40.398z"></path>
</g>
</svg>