<svg xmlns="http://www.w3.org/2000/svg" xmlns:xlink="http://www.w3.org/1999/xlink" id="_x31_" x="0px" y="0px" viewBox="0 0 34.293 48" style="enable-background:new 0 0 34.293 48;" xml:space="preserve">
<g>
	<path style="fill:#1A171B;" d="M7.05,20.286h20.192c0.673,0,1.219-0.546,1.219-1.219c0-0.673-0.546-1.218-1.219-1.218H7.05   c-0.673,0-1.218,0.545-1.218,1.218C5.832,19.741,6.378,20.286,7.05,20.286z"></path>
	<path style="fill:#1A171B;" d="M33.075,2.347H1.219C0.546,2.347,0,2.893,0,3.566v11.343v31.873C0,47.454,0.546,48,1.219,48h31.856   c0.673,0,1.218-0.546,1.218-1.219V14.909V3.566C34.293,2.893,33.748,2.347,33.075,2.347z M31.856,45.563H2.438V16.128h29.418   V45.563z M31.856,13.69H2.438V4.784h29.418V13.69z"></path>
	<path style="fill:#1A171B;" d="M14.044,10.482c0.948,0,1.718-0.769,1.718-1.717c0-0.948-0.769-1.717-1.718-1.717   c-0.948,0-1.717,0.769-1.717,1.717C12.327,9.714,13.096,10.482,14.044,10.482z"></path>
	<path style="fill:#1A171B;" d="M4.862,1.828h8.278c0.505,0,0.914-0.41,0.914-0.914C14.054,0.409,13.645,0,13.14,0H4.862   C4.357,0,3.948,0.409,3.948,0.914C3.948,1.418,4.357,1.828,4.862,1.828z"></path>
	<path style="fill:#1A171B;" d="M21.154,1.828h8.278c0.505,0,0.915-0.41,0.915-0.914C30.346,0.409,29.937,0,29.431,0h-8.278   c-0.505,0-0.914,0.409-0.914,0.914C20.24,1.418,20.649,1.828,21.154,1.828z"></path>
	<path style="fill:#1A171B;" d="M26.613,23.833c-0.55-0.55-1.311-0.892-2.147-0.893v-0.003h-0.001H9.829H9.827v0.003   c-0.839,0.001-1.598,0.341-2.146,0.888l0.002,0.002c-0.55,0.55-0.891,1.309-0.891,2.145H6.789v0.001v11.038v0.002h0.003   c0.001,0.836,0.341,1.594,0.888,2.142c0.55,0.55,1.311,0.892,2.147,0.892v0.004h0.001h14.636h0.002v-0.004   c0.836,0,1.594-0.341,2.142-0.888c0.55-0.55,0.892-1.31,0.893-2.147h0.003v-0.001V25.977v-0.002h-0.003   C27.5,25.139,27.16,24.381,26.613,23.833z M25.68,37.016c0,0.332-0.137,0.635-0.357,0.855c-0.222,0.222-0.526,0.359-0.857,0.359   v-0.003h-0.002H9.829H9.828v0.003c-0.332,0-0.635-0.136-0.855-0.357c-0.222-0.222-0.36-0.526-0.36-0.857h0.003v-0.002V25.977   v-0.001H8.613c0-0.332,0.137-0.634,0.357-0.854l0.001-0.002l0.002,0.002c0.222-0.222,0.525-0.36,0.853-0.36v0.003h0.002h14.636   h0.001v-0.003c0.332,0,0.635,0.137,0.855,0.357c0.222,0.222,0.359,0.526,0.36,0.857h-0.003v0.002v11.038v0.001H25.68z"></path>
	<path style="fill:#1A171B;" d="M4.694,11.494c0.589,0.589,1.403,0.954,2.302,0.954v0.003h0.001h0.002v-0.003   c0.898-0.001,1.71-0.364,2.297-0.95c0.589-0.589,0.954-1.403,0.954-2.302h0.004V9.195V9.193h-0.004   c0-0.398-0.072-0.779-0.203-1.131l0.419-0.311c0.404-0.299,0.489-0.87,0.189-1.274c-0.3-0.404-0.87-0.489-1.274-0.19L8.96,6.6   C8.414,6.187,7.735,5.942,6.998,5.942V5.938H6.998H6.996v0.004c-0.901,0.001-1.714,0.363-2.301,0.95l0.002,0.002   c-0.588,0.588-0.952,1.402-0.953,2.3H3.741v0v0.002h0.003C3.745,10.095,4.108,10.907,4.694,11.494z M5.565,9.195   c0-0.395,0.161-0.752,0.419-1.011l0.002-0.002l0.002,0.002c0.26-0.26,0.617-0.421,1.008-0.422v0.004h0.001h0.001V7.763   c0.394,0,0.751,0.16,1.01,0.419C8.268,8.441,8.43,8.8,8.43,9.193H8.426v0.002v0.001H8.43c0,0.394-0.16,0.751-0.419,1.01   c-0.26,0.26-0.618,0.422-1.012,0.422v-0.004H6.998H6.996v0.004c-0.394,0-0.751-0.16-1.01-0.419   c-0.26-0.261-0.421-0.619-0.422-1.012h0.004V9.195v0H5.565z"></path>
	<path style="fill:#1A171B;" d="M27.883,10.482c0.948,0,1.717-0.769,1.717-1.717c0-0.948-0.769-1.717-1.717-1.717   c-0.948,0-1.717,0.769-1.717,1.717C26.165,9.714,26.934,10.482,27.883,10.482z"></path>
	<path style="fill:#1A171B;" d="M18.616,10.482c0.949,0,1.717-0.769,1.717-1.717c0-0.948-0.769-1.717-1.717-1.717   c-0.947,0-1.717,0.769-1.717,1.717C16.899,9.714,17.668,10.482,18.616,10.482z"></path>
	<path style="fill:#1A171B;" d="M22.984,10.482c0.948,0,1.717-0.769,1.717-1.717c0-0.948-0.769-1.717-1.717-1.717   c-0.948,0-1.717,0.769-1.717,1.717C21.267,9.714,22.036,10.482,22.984,10.482z"></path>
</g>
</svg>