<svg xmlns="http://www.w3.org/2000/svg" xmlns:xlink="http://www.w3.org/1999/xlink" id="_x31_" x="0px" y="0px" viewBox="0 0 36.056 48" style="enable-background:new 0 0 36.056 48;" xml:space="preserve">
<g>
	<path style="fill:#1A171B;" d="M23.404,6.249h5.365c0.707,0,1.281-0.574,1.281-1.282c0-0.707-0.574-1.281-1.281-1.281h-5.365   c-0.708,0-1.281,0.574-1.281,1.281C22.122,5.674,22.696,6.249,23.404,6.249z"></path>
	<path style="fill:#1A171B;" d="M34.774,0H1.281C0.574,0,0,0.574,0,1.281v7.342v32.568v5.526C0,47.426,0.574,48,1.281,48h33.493   c0.708,0,1.282-0.574,1.282-1.282v-5.526V8.624V1.281C36.056,0.574,35.482,0,34.774,0z M33.493,45.437H2.562v-2.964h30.931V45.437z    M33.493,39.911H2.562V9.905h30.931V39.911z M33.493,7.343H2.562v-4.78h30.931V7.343z"></path>
	<path style="fill:#1A171B;" d="M10.197,13.245h15.661c0.532,0,0.962-0.43,0.962-0.961c0-0.531-0.43-0.961-0.962-0.961H10.197   c-0.532,0-0.961,0.43-0.961,0.961C9.236,12.815,9.666,13.245,10.197,13.245z"></path>
	<path style="fill:#1A171B;" d="M31.708,6.227c0.696,0,1.26-0.564,1.26-1.26c0-0.695-0.564-1.259-1.26-1.259   c-0.695,0-1.259,0.564-1.259,1.259C30.449,5.663,31.013,6.227,31.708,6.227z"></path>
	<path style="fill:#1A171B;" d="M5.519,6.305c0.69,0,1.252-0.56,1.252-1.252C6.77,4.361,6.209,3.8,5.519,3.8   c-0.692,0-1.253,0.561-1.253,1.252C4.266,5.744,4.827,6.305,5.519,6.305z"></path>
	<path style="fill:#1A171B;" d="M8.703,6.305c0.692,0,1.253-0.56,1.253-1.252c0-0.692-0.561-1.252-1.253-1.252   c-0.691,0-1.252,0.561-1.252,1.252C7.451,5.744,8.012,6.305,8.703,6.305z"></path>
	<path style="fill:#1A171B;" d="M12.275,6.305c0.692,0,1.253-0.56,1.253-1.252c0-0.692-0.561-1.252-1.253-1.252   c-0.692,0-1.251,0.561-1.251,1.252C11.024,5.744,11.584,6.305,12.275,6.305z"></path>
</g>
</svg>