<svg xmlns="http://www.w3.org/2000/svg" xmlns:xlink="http://www.w3.org/1999/xlink" id="Layer_1" x="0px" y="0px" viewBox="0 0 97.104 66" style="enable-background:new 0 0 97.104 66;" xml:space="preserve">
<g>
	<g>
		<path style="fill:#FFFFFF;" d="M94.053,39.518l-6.035-12.29c-0.605-1.226-1.642-2.137-2.931-2.578    c-1.289-0.456-2.68-0.361-3.921,0.244c-0.699,0.346-1.289,0.825-1.737,1.399c-0.574-0.621-1.289-1.084-2.106-1.36    c-1.289-0.456-2.68-0.369-3.913,0.244c-0.699,0.346-1.289,0.825-1.737,1.399c-0.574-0.629-1.297-1.108-2.122-1.391    c-1.202-0.416-2.491-0.369-3.662,0.126c-0.086,0.039-0.165,0.079-0.251,0.118c-0.621,0.306-1.163,0.723-1.595,1.226l-1.297-2.64    l-2.538-5.171c-0.605-1.234-1.658-2.153-2.931-2.577c-1.289-0.456-2.68-0.369-3.921,0.244c-1.218,0.597-2.137,1.642-2.585,2.931    c-0.44,1.297-0.354,2.687,0.251,3.913l6.067,12.353l1.54,3.143l2.389,4.864l-4.086-1.949c-1.422-0.676-3.049-0.668-4.456,0.023    c-1.037,0.511-1.855,1.336-2.365,2.397c-1.202,2.53-0.141,5.564,2.357,6.789l9.437,5.359c3.788,2.137,4.896,2.908,5.163,3.175    C69.898,62.597,75.359,66,81.307,66c2.161,0,4.393-0.448,6.577-1.524C93.433,61.757,101.605,54.889,94.053,39.518z M86.502,61.655    c-6.672,3.277-13.893-0.762-17.123-4.275c-0.605-0.66-2.208-1.682-5.925-3.78l-9.477-5.383l-0.102-0.055    c-0.974-0.464-1.391-1.642-0.927-2.625c0.196-0.409,0.511-0.731,0.911-0.927c0.542-0.267,1.171-0.267,1.721-0.008l8.165,3.89    c0.071,0.031,0.141,0.055,0.22,0.079c0.008,0,0.016,0.008,0.023,0.008c0.008,0,0.016,0.008,0.024,0.008    c0.071,0.023,0.141,0.016,0.212,0.023c0.063,0.008,0.126,0.024,0.189,0.024h0.047c0.047,0,0.087,0,0.126-0.008    c0.023,0,0.047-0.016,0.071-0.016c0.063-0.008,0.134-0.023,0.196-0.047c0.024-0.008,0.055-0.008,0.079-0.016    c0.134-0.039,0.251-0.094,0.369-0.181c0.016-0.008,0.032-0.031,0.047-0.039c0.039-0.031,0.071-0.063,0.11-0.102    c0.157-0.134,0.291-0.283,0.385-0.479c0.024-0.047,0.032-0.094,0.047-0.141v-0.016c0.008-0.016,0.016-0.039,0.016-0.055    c0.008-0.023,0.016-0.047,0.024-0.071c0.008-0.032,0.008-0.063,0.016-0.094c0.008-0.039,0.024-0.079,0.024-0.118    c0-0.008,0.008-0.016,0.008-0.024v-0.039c0-0.039,0.008-0.071,0.008-0.102v-0.086c0-0.016,0-0.023-0.008-0.039v-0.079    c-0.008-0.055-0.016-0.118-0.032-0.173c0-0.008-0.008-0.016-0.008-0.024c0-0.016-0.008-0.039-0.016-0.055c0-0.008,0-0.008,0-0.016    c-0.008-0.016-0.008-0.039-0.016-0.063c-0.008-0.008-0.016-0.016-0.016-0.023s-0.008-0.016-0.008-0.016    c-0.008-0.031-0.016-0.063-0.032-0.086c0-0.008-0.008-0.016-0.008-0.024c-0.008-0.008-0.008-0.023-0.016-0.031    c-0.008-0.024-0.024-0.039-0.039-0.055c-0.008-0.024-0.016-0.047-0.031-0.071c-0.008-0.024-0.023-0.047-0.039-0.079l-3.583-7.316    l-1.548-3.143l-6.742-13.736c-0.228-0.479-0.267-1.014-0.094-1.509c0.173-0.503,0.526-0.904,0.998-1.132    c0.472-0.236,1.006-0.267,1.517-0.094c0.487,0.165,0.888,0.519,1.124,0.99l5.359,10.915l0.558,1.132l2.585,5.265v0.008    l3.473,7.072c0.275,0.558,0.833,0.88,1.414,0.88c0.228,0,0.464-0.047,0.692-0.157c0.778-0.385,1.1-1.328,0.715-2.106L66.126,30.89    c-0.236-0.471-0.267-1.006-0.094-1.509c0.165-0.495,0.519-0.896,0.99-1.132c0.479-0.236,1.014-0.267,1.509-0.094    c0.503,0.173,0.904,0.526,1.132,0.998l1.414,2.868l4.652,9.477c0.071,0.141,0.157,0.259,0.252,0.369    c0.047,0.055,0.102,0.102,0.165,0.149c0.11,0.102,0.228,0.173,0.361,0.228c0.071,0.023,0.134,0.055,0.204,0.071    c0.141,0.032,0.283,0.055,0.424,0.055c0.181,0,0.354-0.023,0.527-0.086c0.055-0.016,0.11-0.047,0.165-0.071    c0.786-0.385,1.108-1.328,0.723-2.106l-4.652-9.469c-0.479-0.974-0.078-2.161,0.896-2.64c0.479-0.236,1.014-0.267,1.509-0.094    c0.503,0.165,0.904,0.519,1.132,0.99l1.399,2.845l3.253,6.632c0.385,0.778,1.328,1.1,2.106,0.715    c0.778-0.377,1.1-1.32,0.723-2.098l-3.261-6.632c-0.479-0.974-0.071-2.161,0.904-2.64c0.471-0.236,1.006-0.267,1.501-0.094    c0.503,0.173,0.904,0.526,1.139,0.99l6.035,12.29C96.065,50.755,94.478,57.741,86.502,61.655z"></path>
		<g>
			<path style="fill:#FFFFFF;" d="M23.441,14.482c-0.189-0.542-0.472-1.022-0.833-1.43c-0.362-0.409-0.794-0.747-1.305-1.014     c-0.519-0.267-1.022-0.448-1.524-0.55c-0.495-0.102-0.927-0.165-1.281-0.196c-0.361-0.031-0.739-0.039-1.132-0.039h-3.937     c-0.346,0-0.621,0.094-0.833,0.299c-0.212,0.204-0.322,0.511-0.322,0.911v15.033c0,0.086,0.031,0.165,0.079,0.236     c0.055,0.071,0.142,0.126,0.275,0.165c0.126,0.047,0.306,0.079,0.519,0.102c0.22,0.031,0.495,0.039,0.825,0.039     c0.338,0,0.613-0.008,0.825-0.039c0.212-0.024,0.385-0.055,0.519-0.102c0.126-0.039,0.22-0.094,0.275-0.165     c0.055-0.071,0.086-0.149,0.086-0.236v-5.328h1.391c1.108,0,2.059-0.134,2.876-0.393c0.817-0.259,1.501-0.637,2.059-1.132     c0.558-0.495,0.99-1.1,1.281-1.823c0.291-0.723,0.44-1.556,0.44-2.491C23.724,15.645,23.629,15.033,23.441,14.482z      M19.991,17.767c-0.126,0.361-0.299,0.676-0.534,0.943c-0.228,0.259-0.526,0.464-0.896,0.613c-0.361,0.149-0.817,0.22-1.359,0.22     h-1.524V13.87h1.446c0.354,0,0.692,0.023,1.029,0.071c0.33,0.047,0.644,0.165,0.943,0.346c0.307,0.181,0.558,0.456,0.762,0.841     c0.212,0.377,0.314,0.857,0.314,1.446C20.172,17.005,20.109,17.398,19.991,17.767z"></path>
			<path style="fill:#FFFFFF;" d="M35.181,17.759c-0.189-0.574-0.495-1.045-0.904-1.414c-0.416-0.369-0.943-0.637-1.587-0.817     c-0.637-0.173-1.414-0.259-2.318-0.259c-0.503,0-0.998,0.039-1.477,0.118c-0.479,0.086-0.919,0.189-1.32,0.322     c-0.409,0.126-0.762,0.267-1.061,0.417c-0.306,0.149-0.511,0.291-0.637,0.416c-0.118,0.126-0.196,0.259-0.244,0.417     c-0.039,0.157-0.063,0.369-0.063,0.637c0,0.196,0.008,0.377,0.039,0.542c0.023,0.157,0.063,0.299,0.11,0.409     c0.047,0.118,0.102,0.196,0.181,0.259c0.071,0.063,0.157,0.094,0.251,0.094c0.134,0,0.314-0.063,0.534-0.181     c0.22-0.126,0.495-0.259,0.817-0.401c0.33-0.149,0.707-0.283,1.132-0.401c0.424-0.126,0.911-0.181,1.454-0.181     c0.417,0,0.762,0.039,1.037,0.126c0.283,0.087,0.511,0.22,0.676,0.401c0.165,0.181,0.291,0.409,0.361,0.676     c0.071,0.275,0.11,0.589,0.11,0.951v0.699h-1.124c-1.029,0-1.925,0.079-2.703,0.236c-0.77,0.149-1.422,0.393-1.941,0.715     c-0.519,0.322-0.911,0.731-1.179,1.226c-0.259,0.495-0.393,1.077-0.393,1.752c0,0.621,0.102,1.163,0.314,1.627     c0.204,0.464,0.495,0.856,0.872,1.163c0.369,0.322,0.817,0.558,1.328,0.715c0.511,0.157,1.077,0.236,1.69,0.236     c0.739,0,1.407-0.141,2.02-0.424c0.605-0.283,1.147-0.684,1.619-1.187v0.919c0,0.118,0.039,0.212,0.11,0.283     c0.071,0.063,0.196,0.118,0.377,0.149c0.173,0.024,0.456,0.039,0.841,0.039c0.361,0,0.637-0.016,0.825-0.039     c0.181-0.031,0.314-0.086,0.401-0.149c0.086-0.071,0.134-0.165,0.134-0.283V19.81C35.464,19.024,35.369,18.333,35.181,17.759z      M32.273,24.588c-0.401,0.456-0.786,0.794-1.171,1.022c-0.385,0.236-0.802,0.354-1.257,0.354c-0.542,0-0.966-0.141-1.273-0.416     c-0.306-0.275-0.456-0.652-0.456-1.139c0-0.283,0.047-0.534,0.157-0.754c0.11-0.22,0.283-0.409,0.511-0.558     c0.236-0.157,0.534-0.275,0.904-0.354c0.369-0.071,0.817-0.11,1.344-0.11h1.242V24.588z"></path>
			<path style="fill:#FFFFFF;" d="M48.673,15.732c-0.118-0.094-0.299-0.157-0.542-0.196c-0.252-0.032-0.558-0.047-0.927-0.047     c-0.472,0-0.802,0.016-0.99,0.047c-0.196,0.039-0.33,0.086-0.409,0.165c-0.086,0.071-0.149,0.22-0.204,0.44l-2.475,7.874h-0.039     l-2.711-7.717c-0.063-0.196-0.126-0.346-0.181-0.456c-0.063-0.11-0.157-0.189-0.275-0.244c-0.118-0.047-0.291-0.079-0.503-0.094     c-0.212-0.016-0.511-0.016-0.88-0.016c-0.401,0-0.731,0.016-0.974,0.047c-0.244,0.039-0.416,0.102-0.519,0.189     c-0.11,0.094-0.157,0.22-0.157,0.377c0,0.157,0.055,0.385,0.165,0.692l3.968,10.593c0.039,0.118,0.11,0.228,0.196,0.338     c0.094,0.11,0.196,0.189,0.306,0.236l-1.54,3.866c-0.055,0.149-0.086,0.267-0.079,0.377c0.008,0.102,0.071,0.189,0.173,0.251     c0.102,0.071,0.259,0.126,0.464,0.149c0.204,0.032,0.479,0.047,0.825,0.047c0.668,0,1.171-0.047,1.509-0.141     c0.346-0.094,0.558-0.251,0.637-0.464l1.399-4.086l3.835-11.284c0.063-0.212,0.102-0.401,0.102-0.566     C48.846,15.952,48.783,15.826,48.673,15.732z"></path>
		</g>
		<path style="fill:#FFFFFF;" d="M65.89,0H0v38.85c0,0,53.977,0,55.132,0l-1.548-3.143H3.143V3.143h59.603v13.791l3.222,6.357    L65.89,0z"></path>
	</g>
</g>
</svg>