<svg xmlns="http://www.w3.org/2000/svg" xmlns:xlink="http://www.w3.org/1999/xlink" id="Layer_1" x="0px" y="0px" viewBox="0 0 90.864 66" style="enable-background:new 0 0 90.864 66;" xml:space="preserve">
<g>
	<path style="fill:#FFFFFF;" d="M27.89,52.94c-1.663,0-3.011,1.348-3.011,3.011c0,1.663,1.348,3.011,3.011,3.011   c1.663,0,3.011-1.348,3.011-3.011C30.901,54.289,29.553,52.94,27.89,52.94z"></path>
	<path style="fill:#FFFFFF;" d="M71.746,52.94c-1.663,0-3.011,1.348-3.011,3.011c0,1.663,1.348,3.011,3.011,3.011   c1.663,0,3.011-1.348,3.011-3.011C74.757,54.289,73.409,52.94,71.746,52.94z"></path>
	<path style="fill:#FFFFFF;" d="M90.864,32.563L76.769,11.885H55.774V0H0v54.203h18.004c-0.1,0.569-0.163,1.151-0.163,1.749   C17.841,61.492,22.349,66,27.89,66c5.541,0,10.049-4.508,10.049-10.049c0-0.597-0.062-1.18-0.163-1.749h14.855h3.143h6.086   c-0.1,0.569-0.163,1.151-0.163,1.749C61.697,61.492,66.205,66,71.746,66c5.541,0,10.049-4.508,10.049-10.049   c0-0.597-0.062-1.18-0.163-1.749h9.232V32.563z M27.89,62.857c-3.808,0-6.906-3.098-6.906-6.906s3.098-6.906,6.906-6.906   s6.906,3.098,6.906,6.906S31.697,62.857,27.89,62.857z M52.631,51.06H36.659c-1.721-3.073-5.005-5.157-8.77-5.157   c-3.765,0-7.049,2.084-8.77,5.157H3.143V3.143h49.488v8.742V51.06z M71.746,62.857c-3.808,0-6.906-3.098-6.906-6.906   s3.098-6.906,6.906-6.906c3.808,0,6.906,3.098,6.906,6.906S75.554,62.857,71.746,62.857z M87.721,51.06h-7.205   c-1.721-3.073-5.005-5.157-8.77-5.157c-3.765,0-7.049,2.084-8.77,5.157h-7.203V15.028h19.334l12.613,18.505V51.06z"></path>
	<path style="fill:#FFFFFF;" d="M58.915,18.169v15.198h24.89L73.445,18.169H58.915z M62.058,30.224v-8.912h9.725l6.076,8.912H62.058   z"></path>
</g>
</svg>