<svg xmlns="http://www.w3.org/2000/svg" xmlns:xlink="http://www.w3.org/1999/xlink" id="icons" x="0px" y="0px" viewBox="0 0 29.993 25" style="enable-background:new 0 0 29.993 25;" xml:space="preserve">
<g>
	<polygon style="fill:#F3273D;" points="6.97,10.16 6.21,12.247 2.498,12.247 2.498,13.497 11.868,13.497 11.868,12.247    7.539,12.247 8.143,10.587  "></polygon>
	<path style="fill:#F3273D;" d="M29.993,8.993l-6.693-2.436c0.009-0.004,0.019-0.006,0.029-0.01c1.317-0.564,1.896-1.879,1.41-3.197   c-0.237-0.641-0.678-1.128-1.244-1.371c-0.578-0.248-1.235-0.229-1.9,0.056c-0.584,0.25-1.093,0.691-1.518,1.175   c-0.03-0.646-0.141-1.31-0.409-1.867c-0.392-0.816-0.964-1.134-1.375-1.258c-0.577-0.175-1.219-0.077-1.804,0.272   c-1.18,0.705-1.582,2.076-0.977,3.336c0.006,0.013,0.014,0.025,0.021,0.037L8.864,1.302L6.941,6.585l1.175,0.428L7.574,8.5h-5.7   v1.249h8.12V8.5H8.903l0.386-1.06l5.87,2.136l-3.632,9.978l-5.07-1.845L6.03,18.882L22.838,25l4.059-11.152l1.174,0.427   L29.993,8.993z M22.087,3.183c0.343-0.146,0.661-0.166,0.915-0.057c0.248,0.106,0.448,0.34,0.565,0.656   c0.201,0.544,0.115,1.254-0.73,1.616c-0.863,0.369-2.026,0.16-2.739-0.034C20.519,4.601,21.25,3.542,22.087,3.183z M17.13,1.429   c0.198-0.118,0.4-0.179,0.585-0.179c0.076,0,0.149,0.01,0.219,0.031c0.309,0.093,0.501,0.379,0.609,0.603   c0.389,0.809,0.324,2.106,0.201,2.988c-0.741-0.345-1.734-0.948-2.105-1.72C16.245,2.333,16.634,1.725,17.13,1.429z M8.543,5.838   l1.068-2.935l7.044,2.564l-1.068,2.935L8.543,5.838z M17.828,5.894l0.964,0.351c0.104,0.04,0.176,0.065,0.21,0.076l0.024,0.009   c0.032,0.012,0.085,0.032,0.164,0.06l0.987,0.359l-5.127,14.087l-2.348-0.854L17.828,5.894z M22.092,23.399l-5.87-2.136   l3.632-9.978l5.87,2.137L22.092,23.399z M20.281,10.111l1.068-2.935l7.043,2.564l-1.068,2.935L20.281,10.111z"></path>
	<polygon style="fill:#F3273D;" points="9.994,15.995 6.175,15.995 6.779,14.335 5.606,13.908 4.846,15.995 0,15.995 0,17.244    9.994,17.244  "></polygon>
</g>
</svg>