<?xml version="1.0" encoding="utf-8"?>
<!-- Generator: Adobe Illustrator 24.2.1, SVG Export Plug-In . SVG Version: 6.00 Build 0)  -->
<svg version="1.0" id="Layer_1" xmlns="http://www.w3.org/2000/svg" xmlns:xlink="http://www.w3.org/1999/xlink" x="0px" y="0px"
	 viewBox="0 0 230.799 18.824" style="enable-background:new 0 0 230.799 18.824;" xml:space="preserve">
<g>
	<polygon points="11.492,7.878 3.328,7.878 3.328,0.312 0,0.312 0,18.512 3.328,18.512 3.328,10.582 11.492,10.582 11.492,18.512 
		14.82,18.512 14.82,0.312 11.492,0.312 	"/>
	<path d="M31.642,1.196C30.272,0.399,28.687,0,26.884,0c-1.82,0-3.41,0.399-4.771,1.196s-2.427,1.902-3.198,3.315
		c-0.771,1.413-1.157,3.046-1.157,4.901c0,1.855,0.386,3.489,1.157,4.901c0.771,1.413,1.837,2.518,3.198,3.315
		s2.951,1.196,4.771,1.196c1.803,0,3.389-0.398,4.758-1.196c1.369-0.797,2.435-1.902,3.198-3.315
		c0.763-1.412,1.144-3.046,1.144-4.901c0-1.854-0.381-3.488-1.144-4.901C34.077,3.099,33.011,1.994,31.642,1.196z M31.031,14.118
		c-1.031,1.144-2.414,1.716-4.147,1.716s-3.12-0.572-4.16-1.716c-1.04-1.144-1.56-2.712-1.56-4.706c0-1.993,0.52-3.562,1.56-4.706
		c1.04-1.144,2.426-1.716,4.16-1.716S30,3.562,31.031,4.706s1.547,2.713,1.547,4.706C32.578,11.406,32.062,12.974,31.031,14.118z"/>
	<polygon points="48.671,11.856 42.874,0.312 38.921,0.312 38.921,18.512 42.25,18.512 42.25,5.954 47.319,15.912 49.945,15.912 
		55.016,5.954 55.016,18.512 58.344,18.512 58.344,0.312 54.391,0.312 	"/>
	<polygon points="61.878,18.512 73.761,18.512 73.761,15.834 65.207,15.834 65.207,10.582 72.981,10.582 72.981,7.982 65.207,7.982 
		65.207,2.99 73.761,2.99 73.761,0.312 61.878,0.312 	"/>
	<path d="M88.815,0.312l-6.708,18.2h2.288l1.689-4.68h7.748l1.664,4.68h2.314l-6.683-18.2H88.815z M86.735,12.064l3.224-8.996
		l3.225,8.996H86.735z"/>
	<path d="M110.004,1.014c-0.919-0.468-2.089-0.702-3.51-0.702h-5.98v18.2h2.185V10.92h3.796c1.438,0,2.617-0.238,3.536-0.715
		c0.918-0.477,1.594-1.113,2.027-1.911s0.65-1.69,0.65-2.678c0-1.005-0.221-1.907-0.663-2.704
		C111.603,2.115,110.923,1.482,110.004,1.014z M109.549,8.151c-0.615,0.615-1.651,0.923-3.107,0.923h-3.743V2.132h3.743
		c1.456,0,2.492,0.308,3.107,0.923c0.615,0.616,0.923,1.469,0.923,2.561C110.472,6.691,110.165,7.536,109.549,8.151z"/>
	<path d="M125.058,1.014c-0.919-0.468-2.089-0.702-3.51-0.702h-5.98v18.2h2.185V10.92h3.796c1.438,0,2.617-0.238,3.536-0.715
		c0.918-0.477,1.594-1.113,2.027-1.911s0.65-1.69,0.65-2.678c0-1.005-0.221-1.907-0.663-2.704
		C126.657,2.115,125.977,1.482,125.058,1.014z M124.603,8.151c-0.615,0.615-1.651,0.923-3.107,0.923h-3.743V2.132h3.743
		c1.456,0,2.492,0.308,3.107,0.923c0.615,0.616,0.923,1.469,0.923,2.561C125.526,6.691,125.218,7.536,124.603,8.151z"/>
	<polygon points="132.806,0.312 130.622,0.312 130.622,18.512 141.282,18.512 141.282,16.77 132.806,16.77 	"/>
	<rect x="144.272" y="0.312" width="2.185" height="18.2"/>
	<path d="M155.868,0.312l-6.708,18.2h2.288l1.689-4.68h7.748l1.664,4.68h2.314l-6.683-18.2H155.868z M153.788,12.064l3.224-8.996
		l3.225,8.996H153.788z"/>
	<polygon points="179.449,14.898 169.751,0.312 167.567,0.312 167.567,18.512 169.751,18.512 169.751,3.926 179.449,18.512 
		181.633,18.512 181.633,0.312 179.449,0.312 	"/>
	<path d="M190.057,2.821c0.971-0.598,2.106-0.897,3.406-0.897c1.456,0,2.612,0.342,3.471,1.027c0.858,0.685,1.426,1.59,1.703,2.717
		h2.418c-0.364-1.785-1.2-3.176-2.509-4.173C197.237,0.499,195.543,0,193.463,0c-1.786,0-3.324,0.399-4.615,1.196
		s-2.293,1.902-3.003,3.315c-0.711,1.413-1.066,3.046-1.066,4.901c0,1.872,0.355,3.515,1.066,4.927
		c0.71,1.413,1.712,2.513,3.003,3.302c1.291,0.789,2.829,1.183,4.615,1.183c2.08,0,3.773-0.494,5.083-1.482
		c1.309-0.988,2.145-2.357,2.509-4.108h-2.418c-0.277,1.109-0.845,1.998-1.703,2.665s-2.015,1.001-3.471,1.001
		c-1.3,0-2.436-0.299-3.406-0.897c-0.971-0.598-1.721-1.456-2.249-2.574c-0.529-1.118-0.793-2.457-0.793-4.017
		s0.264-2.899,0.793-4.017C188.336,4.277,189.086,3.419,190.057,2.821z"/>
	<polygon points="204.201,18.512 215.458,18.512 215.458,16.718 206.385,16.718 206.385,10.218 214.679,10.218 214.679,8.45 
		206.385,8.45 206.385,2.106 215.458,2.106 215.458,0.312 204.201,0.312 	"/>
	<path d="M230.214,11.232c-0.391-0.659-0.933-1.196-1.625-1.612c-0.694-0.416-1.474-0.78-2.341-1.092
		c-1.04-0.347-1.959-0.654-2.756-0.923c-0.797-0.268-1.417-0.611-1.858-1.027c-0.442-0.416-0.663-1.014-0.663-1.794
		c0-0.918,0.315-1.638,0.948-2.158c0.633-0.52,1.443-0.771,2.432-0.754c0.797,0,1.46,0.156,1.989,0.468
		c0.528,0.312,0.923,0.715,1.183,1.209c0.26,0.494,0.39,0.992,0.39,1.495h2.288c-0.018-0.971-0.265-1.837-0.741-2.6
		s-1.144-1.361-2.002-1.794C226.6,0.217,225.59,0,224.429,0c-1.18,0-2.197,0.213-3.056,0.637c-0.857,0.425-1.521,1.014-1.988,1.768
		c-0.469,0.754-0.693,1.616-0.677,2.587c0,1.162,0.339,2.102,1.015,2.821c0.676,0.72,1.716,1.322,3.12,1.807
		c0.745,0.26,1.46,0.494,2.145,0.702s1.291,0.451,1.82,0.728c0.528,0.277,0.949,0.637,1.261,1.079
		c0.312,0.442,0.468,1.027,0.468,1.755c0,0.884-0.338,1.621-1.014,2.21c-0.676,0.589-1.63,0.884-2.86,0.884
		c-0.936,0-1.72-0.177-2.353-0.533c-0.633-0.355-1.114-0.832-1.443-1.43s-0.494-1.252-0.494-1.963h-2.288
		c0,1.144,0.269,2.149,0.807,3.016c0.537,0.867,1.3,1.543,2.288,2.028c0.987,0.485,2.148,0.728,3.483,0.728
		c1.369,0,2.51-0.243,3.419-0.728c0.91-0.485,1.591-1.113,2.041-1.885c0.451-0.771,0.677-1.59,0.677-2.457
		C230.799,12.731,230.604,11.891,230.214,11.232z"/>
</g>
</svg>
