<svg xmlns="http://www.w3.org/2000/svg" xmlns:xlink="http://www.w3.org/1999/xlink" id="Layer_1" x="0px" y="0px" viewBox="0 0 34.582 32" style="enable-background:new 0 0 34.582 32;" xml:space="preserve">
<g>
	<g>
		<path d="M14.501,25.917c-1.677,0-3.041,1.364-3.041,3.041c0,1.677,1.364,3.041,3.041,3.041s3.041-1.364,3.041-3.041    C17.542,27.282,16.177,25.917,14.501,25.917z M14.501,30.302c-0.741,0-1.343-0.603-1.343-1.343c0-0.741,0.603-1.343,1.343-1.343    s1.343,0.603,1.343,1.343C15.844,29.699,15.241,30.302,14.501,30.302z"></path>
	</g>
</g>
<g>
	<g>
		<path d="M25.169,25.917c-1.677,0-3.041,1.364-3.041,3.041c0,1.677,1.364,3.041,3.041,3.041s3.041-1.364,3.041-3.041    C28.21,27.282,26.846,25.917,25.169,25.917z M25.169,30.302c-0.741,0-1.343-0.603-1.343-1.343c0-0.741,0.603-1.343,1.343-1.343    c0.741,0,1.343,0.603,1.343,1.343C26.512,29.699,25.909,30.302,25.169,30.302z"></path>
	</g>
</g>
<g>
	<g>
		<path d="M25.917,9.905H13.75c-0.469,0-0.849,0.38-0.849,0.849c0,0.469,0.38,0.849,0.849,0.849h12.168    c0.469,0,0.849-0.38,0.849-0.849C26.766,10.285,26.386,9.905,25.917,9.905z"></path>
	</g>
</g>
<g>
	<g>
		<path d="M25.255,14.314H14.412c-0.469,0-0.849,0.38-0.849,0.849c0,0.469,0.38,0.849,0.849,0.849h10.843    c0.469,0,0.849-0.38,0.849-0.849C26.104,14.694,25.724,14.314,25.255,14.314z"></path>
	</g>
</g>
<g>
	<g>
		<path d="M34.2,6.121c-0.324-0.397-0.804-0.625-1.316-0.625H6.435L5.901,2.903C5.79,2.362,5.421,1.908,4.914,1.688L1.187,0.071    c-0.43-0.187-0.93,0.011-1.117,0.441c-0.187,0.43,0.011,0.93,0.441,1.117l3.727,1.618l4.108,19.943    c0.162,0.785,0.861,1.355,1.663,1.355h20.342c0.469,0,0.849-0.38,0.849-0.849s-0.38-0.849-0.849-0.849H10.01l-0.5-2.426h20.999    c0.802,0,1.501-0.57,1.663-1.355l2.375-11.528C34.65,7.035,34.524,6.519,34.2,6.121z M30.509,18.722H9.16L6.785,7.194l26.098,0    L30.509,18.722z"></path>
	</g>
</g>
</svg>