<?xml version="1.0" encoding="UTF-8"?>
<svg width="312px" height="54px" viewBox="0 0 312 54" version="1.1" xmlns="http://www.w3.org/2000/svg" xmlns:xlink="http://www.w3.org/1999/xlink">
    <!-- Generator: Sketch 52.6 (67491) - http://www.bohemiancoding.com/sketch -->
    <title>Artboard</title>
    <desc>Created with Sketch.</desc>
    <g id="Artboard" stroke="none" stroke-width="1" fill="none" fill-rule="evenodd">
        <path d="M56.4258477,25 L55.1958477,21.64 L46.7058477,21.64 L45.4458477,25 L39.0258477,25 L47.9958477,3.97 L54.4158477,3.97 L63.0858477,25 L56.4258477,25 Z M48.4458477,17.08 L53.5458477,17.08 L51.0258477,10.21 L48.4458477,17.08 Z M72.8758478,3.97 C75.115859,3.97 77.0908392,4.40499565 78.8008478,5.275 C80.5108563,6.14500435 81.8358431,7.37499205 82.7758478,8.965 C83.7158525,10.555008 84.1858478,12.3899896 84.1858478,14.47 C84.1858478,16.5500104 83.7058526,18.389992 82.7458478,19.99 C81.785843,21.590008 80.4358565,22.8249957 78.6958478,23.695 C76.9558391,24.5650044 74.9458592,25 72.6658478,25 L63.6658478,25 L63.6658478,3.97 L72.8758478,3.97 Z M73.0558478,20.11 C74.4758549,20.11 75.6258434,19.6000051 76.5058478,18.58 C77.3858522,17.5599949 77.8258478,16.2100084 77.8258478,14.53 C77.8258478,12.8499916 77.3558525,11.4900052 76.4158478,10.45 C75.4758431,9.4099948 74.2558553,8.89 72.7558478,8.89 L69.9058478,8.89 L69.9058478,20.11 L73.0558478,20.11 Z M83.4158478,3.97 L90.0758478,3.97 L94.8758478,18.52 L99.6758478,3.97 L106.065848,3.97 L97.9358478,25 L91.4558478,25 L83.4158478,3.97 Z M106.765848,3.97 L123.955848,3.97 L123.955848,8.77 L113.005848,8.77 L113.005848,12.07 L122.935848,12.07 L122.935848,16.87 L113.005848,16.87 L113.005848,20.2 L124.255848,20.2 L124.255848,25 L106.765848,25 L106.765848,3.97 Z M140.555848,3.97 L146.255848,3.97 L146.255848,25 L140.945848,25 L132.035848,13.3 L132.035848,25 L126.305848,25 L126.305848,3.97 L131.645848,3.97 L140.555848,15.7 L140.555848,3.97 Z M147.255848,3.97 L165.735848,3.97 L165.735848,8.95 L159.615848,8.95 L159.615848,25 L153.345848,25 L153.345848,8.95 L147.255848,8.95 L147.255848,3.97 Z M172.645848,16.3 C172.645848,17.4800059 172.985844,18.4299964 173.665848,19.15 C174.345851,19.8700036 175.195843,20.23 176.215848,20.23 C177.215853,20.23 178.035845,19.8750036 178.675848,19.165 C179.315851,18.4549965 179.635848,17.500006 179.635848,16.3 L179.635848,3.97 L185.875848,3.97 L185.875848,16.3 C185.875848,18.1400092 185.480852,19.7449932 184.690848,21.115 C183.900844,22.4850069 182.775855,23.5449963 181.315848,24.295 C179.855841,25.0450038 178.155858,25.42 176.215848,25.42 C174.255838,25.42 172.535855,25.0450038 171.055848,24.295 C169.57584,23.5449963 168.430852,22.4850069 167.620848,21.115 C166.810844,19.7449932 166.405848,18.1400092 166.405848,16.3 L166.405848,3.97 L172.645848,3.97 L172.645848,16.3 Z M200.465848,25 L197.675848,19.33 L194.375848,19.33 L194.375848,25 L188.135848,25 L188.135848,3.97 L197.945848,3.97 C200.765862,3.97 202.95084,4.6199935 204.500848,5.92 C206.050856,7.2200065 206.825848,9.0599881 206.825848,11.44 C206.825848,12.9800077 206.520851,14.3149944 205.910848,15.445 C205.300845,16.5750057 204.425854,17.4699967 203.285848,18.13 L207.545848,25 L200.465848,25 Z M194.375848,14.53 L197.945848,14.53 C198.885853,14.53 199.610845,14.2800025 200.120848,13.78 C200.63085,13.2799975 200.885848,12.5600047 200.885848,11.62 C200.885848,10.6999954 200.63085,9.99500245 200.120848,9.505 C199.610845,9.01499755 198.885853,8.77 197.945848,8.77 L194.375848,8.77 L194.375848,14.53 Z M219.195848,3.58 C221.355859,3.58 223.310839,4.0499953 225.060848,4.99 C226.810857,5.9300047 228.180843,7.22499175 229.170848,8.875 C230.160853,10.5250083 230.655848,12.3799897 230.655848,14.44 C230.655848,16.5200104 230.160853,18.3949917 229.170848,20.065 C228.180843,21.7350084 226.810857,23.0449953 225.060848,23.995 C223.310839,24.9450048 221.355859,25.42 219.195848,25.42 C217.015837,25.42 215.055857,24.9450048 213.315848,23.995 C211.575839,23.0449953 210.210853,21.7350084 209.220848,20.065 C208.230843,18.3949917 207.735848,16.5200104 207.735848,14.44 C207.735848,12.3799897 208.230843,10.5250083 209.220848,8.875 C210.210853,7.22499175 211.575839,5.9300047 213.315848,4.99 C215.055857,4.0499953 217.015837,3.58 219.195848,3.58 Z M219.285848,8.77 C218.365843,8.77 217.510852,9.0199975 216.720848,9.52 C215.930844,10.0200025 215.30085,10.7049957 214.830848,11.575 C214.360845,12.4450044 214.125848,13.4099947 214.125848,14.47 C214.125848,15.5300053 214.360845,16.4999956 214.830848,17.38 C215.30085,18.2600044 215.930844,18.9549975 216.720848,19.465 C217.510852,19.9750026 218.365843,20.23 219.285848,20.23 C220.185852,20.23 221.020844,19.9750026 221.790848,19.465 C222.560852,18.9549975 223.165846,18.2650044 223.605848,17.395 C224.04585,16.5249957 224.265848,15.5500054 224.265848,14.47 C224.265848,13.4099947 224.04585,12.4450044 223.605848,11.575 C223.165846,10.7049957 222.565852,10.0200025 221.805848,9.52 C221.045844,9.0199975 220.205852,8.77 219.285848,8.77 Z M237.955848,16.3 C237.955848,17.4800059 238.295844,18.4299964 238.975848,19.15 C239.655851,19.8700036 240.505843,20.23 241.525848,20.23 C242.525853,20.23 243.345845,19.8750036 243.985848,19.165 C244.625851,18.4549965 244.945848,17.500006 244.945848,16.3 L244.945848,3.97 L251.185848,3.97 L251.185848,16.3 C251.185848,18.1400092 250.790852,19.7449932 250.000848,21.115 C249.210844,22.4850069 248.085855,23.5449963 246.625848,24.295 C245.165841,25.0450038 243.465858,25.42 241.525848,25.42 C239.565838,25.42 237.845855,25.0450038 236.365848,24.295 C234.88584,23.5449963 233.740852,22.4850069 232.930848,21.115 C232.120844,19.7449932 231.715848,18.1400092 231.715848,16.3 L231.715848,3.97 L237.955848,3.97 L237.955848,16.3 Z M268.565848,10.75 C267.445842,10.0899967 266.215855,9.5300023 264.875848,9.07 C263.535841,8.6099977 262.435852,8.38 261.575848,8.38 C261.035845,8.38 260.610849,8.48499895 260.300848,8.695 C259.990846,8.90500105 259.835848,9.209998 259.835848,9.61 C259.835848,10.1700028 260.135845,10.6049985 260.735848,10.915 C261.335851,11.2250016 262.285841,11.5599982 263.585848,11.92 C265.065855,12.3400021 266.285843,12.7649979 267.245848,13.195 C268.205853,13.6250022 269.040844,14.2799956 269.750848,15.16 C270.460851,16.0400044 270.815848,17.1999928 270.815848,18.64 C270.815848,20.1000073 270.430852,21.334995 269.660848,22.345 C268.890844,23.3550051 267.850854,24.1099975 266.540848,24.61 C265.230841,25.1100025 263.765856,25.36 262.145848,25.36 C260.345839,25.36 258.540857,25.0550031 256.730848,24.445 C254.920839,23.834997 253.355854,23.0000053 252.035848,21.94 L254.375848,17.2 C255.435853,18.1200046 256.73084,18.8949969 258.260848,19.525 C259.790856,20.1550032 261.105842,20.47 262.205848,20.47 C262.885851,20.47 263.415846,20.3400013 263.795848,20.08 C264.17585,19.8199987 264.365848,19.4500024 264.365848,18.97 C264.365848,18.3899971 264.055851,17.9450016 263.435848,17.635 C262.815845,17.3249985 261.855854,17.0000017 260.555848,16.66 C259.095841,16.2799981 257.885853,15.8850021 256.925848,15.475 C255.965843,15.064998 255.135851,14.4300043 254.435848,13.57 C253.735844,12.7099957 253.385848,11.580007 253.385848,10.18 C253.385848,8.8199932 253.745844,7.63500505 254.465848,6.625 C255.185851,5.61499495 256.200841,4.8400027 257.510848,4.3 C258.820854,3.7599973 260.345839,3.49 262.085848,3.49 C263.665856,3.49 265.23584,3.71499775 266.795848,4.165 C268.355856,4.61500225 269.715842,5.2099963 270.875848,5.95 L268.565848,10.75 Z M44.3938477,38.8 C44.3938477,39.600004 44.4525138,40.837325 44.5698477,42.512 C44.6871817,44.186675 44.7458477,45.4453291 44.7458477,46.288 C44.7458477,47.5360062 44.52185,48.4746635 44.0738477,49.104 C43.6258455,49.7333365 42.8151869,50.048 41.6418477,50.048 C40.9378442,50.048 40.2818508,49.8986682 39.6738477,49.6 C39.0658447,49.3013318 38.6445156,48.9013358 38.4098477,48.4 C38.6765157,48.1759989 38.9085134,48.064 39.1058477,48.064 C39.3031821,48.064 39.4845136,48.130666 39.6498477,48.264 C39.8151819,48.397334 39.9645137,48.5439992 40.0978477,48.704 C40.2311817,48.8640008 40.4658461,49.010666 40.8018477,49.144 C41.1378494,49.277334 41.5805117,49.344 42.1298477,49.344 C42.6791838,49.344 43.0685133,49.1040024 43.2978477,48.624 C43.5271822,48.1439976 43.6418477,47.4506712 43.6418477,46.544 C43.6418477,45.6373288 43.5885149,44.5120067 43.4818477,43.168 C43.3751805,41.8239933 43.3218477,40.8346698 43.3218477,40.2 C43.3218477,39.5653302 43.3751805,39.1626675 43.4818477,38.992 C43.5885149,38.8213325 43.7298469,38.736 43.9058477,38.736 C44.0818486,38.736 44.2445137,38.7573331 44.3938477,38.8 Z M48.0578477,42.496 C47.780513,43.0186693 47.6418477,43.7973282 47.6418477,44.832 C47.6418477,46.3893411 47.9351781,47.6319954 48.5218477,48.56 C48.8631828,49.1040027 49.2711787,49.376 49.7458477,49.376 C50.2205168,49.376 50.6018463,49.1253358 50.8898477,48.624 C51.2311828,48.0053302 51.4018477,47.1520054 51.4018477,46.064 C51.4018477,44.6986598 51.2098497,43.6906699 50.8258477,43.04 C50.6551802,42.7306651 50.5565145,42.5066674 50.5298477,42.368 C50.5031809,42.2293326 50.5378473,42.1280003 50.6338477,42.064 C50.7298482,41.9999997 50.8898466,41.968 51.1138477,41.968 C51.7645177,41.968 52.1911801,42.6399933 52.3938477,43.984 C52.4578481,44.3573352 52.4898477,44.7306648 52.4898477,45.104 C52.4898477,46.0746715 52.2978497,47.0453285 51.9138477,48.016 C51.369845,49.34934 50.5111869,50.016 49.3378477,50.016 C48.719178,50.016 48.1911833,49.786669 47.7538477,49.328 C46.9325103,48.453329 46.5218477,47.1360088 46.5218477,45.376 C46.5218477,44.6079962 46.5751805,44.0213354 46.6818477,43.616 C46.7885149,43.2106646 46.8791807,42.9466673 46.9538477,42.824 C47.0285148,42.7013327 47.1191805,42.5866672 47.2258477,42.48 C47.3325149,42.3733328 47.4525137,42.3306666 47.5858477,42.352 C47.7191817,42.3733334 47.8765135,42.421333 48.0578477,42.496 Z M55.0018477,49.504 C55.0338479,50.3680043 55.1405135,51.5893254 55.3218477,53.168 C55.1191801,53.3706677 54.8791825,53.472 54.6018477,53.472 C54.5485141,53.472 54.4898481,53.4666667 54.4258477,53.456 C54.415181,53.0399979 54.3378485,52.0960074 54.1938477,50.624 C54.049847,49.1519926 53.9778477,48.0240039 53.9778477,47.24 C53.9778477,46.4559961 54.0258473,45.7760029 54.1218477,45.2 C54.2178482,44.6239971 54.3831799,44.0853358 54.6178477,43.584 C55.0978501,42.5493282 55.9831746,42.032 57.2738477,42.032 C58.0738517,42.032 58.7298452,42.469329 59.2418477,43.344 C59.7538503,44.218671 60.0098477,45.2373275 60.0098477,46.4 C60.0098477,47.3173379 59.7111841,48.1226632 59.1138477,48.816 C58.5165114,49.5093368 57.689853,49.856 56.6338477,49.856 C55.9831778,49.856 55.4391833,49.7386678 55.0018477,49.504 Z M57.1458477,42.896 C56.2391765,42.896 55.6365159,43.3653286 55.3378477,44.304 C55.0818465,45.104004 54.9538477,46.207993 54.9538477,47.616 C54.9538477,48.1280026 54.959181,48.5066654 54.9698477,48.752 C55.9191858,48.9546677 56.5645127,49.056 56.9058477,49.056 C57.5245175,49.056 58.0151793,48.8080025 58.3778477,48.312 C58.7405162,47.8159975 58.9218477,47.2106702 58.9218477,46.496 C58.9218477,45.4399947 58.764516,44.5760034 58.4498477,43.904 C58.1351795,43.2319966 57.7005172,42.896 57.1458477,42.896 Z M62.7458477,38.224 C62.735181,38.4693346 62.7298477,38.7413318 62.7298477,39.04 C62.7298477,39.3386682 62.7458476,39.6479984 62.7778477,39.968 C62.6285137,40.1386675 62.425849,40.224 62.1698477,40.224 C61.8498461,40.224 61.6898477,39.9680026 61.6898477,39.456 L61.6898477,39.216 C61.6898477,39.0773326 61.6925144,38.9520006 61.6978477,38.84 C61.7031811,38.7279994 61.7218476,38.5973341 61.7538477,38.448 C61.8285148,38.1919987 61.9938465,38.064 62.2498477,38.064 C62.505849,38.064 62.6711807,38.1173328 62.7458477,38.224 Z M61.7218477,46.064 C61.7218477,43.9733229 61.8285133,42.7680016 62.0418477,42.448 C62.1165148,42.3306661 62.2071805,42.272 62.3138477,42.272 C62.4205149,42.272 62.5965132,42.3306661 62.8418477,42.448 C62.7885141,43.3546712 62.7618477,44.341328 62.7618477,45.408 L62.7938477,48.944 C62.7938477,49.2746683 62.7218485,49.506666 62.5778477,49.64 C62.433847,49.773334 62.300515,49.84 62.1778477,49.84 C62.0551805,49.84 61.9298484,49.8080003 61.8018477,49.744 C61.7485141,48.3573264 61.7218477,47.130672 61.7218477,46.064 Z M64.8258477,43.296 C64.3458453,43.296 64.0205153,43.1786678 63.8498477,42.944 C63.8498477,42.7733325 63.921847,42.6400005 64.0658477,42.544 C64.2098485,42.4479995 64.3671802,42.3866668 64.5378477,42.36 C64.7085153,42.3333332 64.9858458,42.3093334 65.3698477,42.288 C65.4018479,41.9999986 65.4205144,41.6293356 65.4258477,41.176 C65.4311811,40.7226644 65.439181,40.3360016 65.4498477,40.016 C65.4818479,39.1733291 65.6098466,38.656001 65.8338477,38.464 C65.9298482,38.3786662 66.0338472,38.336 66.1458477,38.336 C66.2578483,38.336 66.356514,38.3466666 66.4418477,38.368 C66.4738479,39.1360038 66.4898477,39.5999992 66.4898477,39.76 L66.3938477,42.16 C66.4151812,42.1706667 66.4738473,42.176 66.5698477,42.176 L67.7218477,42.128 C68.5538519,42.128 68.9698477,42.2559987 68.9698477,42.512 C68.9698477,42.8746685 68.8205159,43.0879997 68.5218477,43.152 C68.3831804,43.1840002 68.2205153,43.2 68.0338477,43.2 C67.8471801,43.2 67.6071825,43.1760002 67.3138477,43.128 C67.0205129,43.0799998 66.8098484,43.056 66.6818477,43.056 C66.5538471,43.056 66.4685146,43.0613333 66.4258477,43.072 C66.3938476,43.3813349 66.3778477,43.6879985 66.3778477,43.992 C66.3778477,44.2960015 66.3858477,44.6746644 66.4018477,45.128 C66.4178478,45.5813356 66.4605141,46.1226635 66.5298477,46.752 C66.5991814,47.3813365 66.7511799,47.9226644 66.9858477,48.376 C67.2205156,48.8293356 67.5191793,49.056 67.8818477,49.056 C68.063182,49.056 68.2765132,48.9840007 68.5218477,48.84 C68.7671823,48.6959993 68.9565137,48.624 69.0898477,48.624 C69.2231817,48.624 69.3405139,48.653333 69.4418477,48.712 C69.5431816,48.770667 69.5938477,48.837333 69.5938477,48.912 C69.5938477,49.1360011 69.3671833,49.351999 68.9138477,49.56 C68.4605121,49.768001 68.0738493,49.872 67.7538477,49.872 C66.5805085,49.872 65.8498492,48.7626778 65.5618477,46.544 C65.476514,45.9039968 65.4125146,44.8053411 65.3698477,43.248 C65.1991802,43.2800002 65.0178487,43.296 64.8258477,43.296 Z M71.3538477,46.752 C71.3325143,46.9653344 71.3218477,47.109333 71.3218477,47.184 C71.3218477,47.8240032 71.5165125,48.3199982 71.9058477,48.672 C72.295183,49.0240018 72.7565117,49.2 73.2898477,49.2 C73.8231837,49.2 74.2578461,49.1253341 74.5938477,48.976 C74.9298494,48.8266659 75.1725137,48.6666675 75.3218477,48.496 C75.7058497,48.0159976 76.0578461,47.776 76.3778477,47.776 C76.4951817,47.776 76.6338469,47.8079997 76.7938477,47.872 C76.6871805,48.3946693 76.2845179,48.8719978 75.5858477,49.304 C74.8871776,49.7360022 74.009853,49.952 72.9538477,49.952 C72.2071773,49.952 71.5645171,49.714669 71.0258477,49.24 C70.4871784,48.765331 70.2178477,48.1173374 70.2178477,47.296 C70.2178477,46.4746626 70.3805128,45.6773372 70.7058477,44.904 C71.0311827,44.1306628 71.5005113,43.4693361 72.1138477,42.92 C72.7271841,42.3706639 73.3511779,42.096 73.9858477,42.096 C74.6205176,42.096 75.1325125,42.2266654 75.5218477,42.488 C75.911183,42.7493346 76.1058477,43.1306642 76.1058477,43.632 C76.1058477,44.5600046 75.6925185,45.3253303 74.8658477,45.928 C74.0391769,46.5306697 73.1618524,46.832 72.2338477,46.832 C71.9885132,46.832 71.6951828,46.8053336 71.3538477,46.752 Z M72.5698477,46.224 C73.0711836,46.224 73.5191791,46.0640016 73.9138477,45.744 C74.3085164,45.4239984 74.5885136,45.0880018 74.7538477,44.736 C74.9191819,44.3839982 75.0018477,44.0640014 75.0018477,43.776 C75.0018477,43.4879986 74.8898489,43.2346678 74.6658477,43.016 C74.4418466,42.7973322 74.1805159,42.688 73.8818477,42.688 C73.3485117,42.688 72.8551833,43.0559963 72.4018477,43.792 C71.9485121,44.5280037 71.6258487,45.2906627 71.4338477,46.08 C71.9031834,46.1760005 72.2818463,46.224 72.5698477,46.224 Z M79.6738477,48.432 L79.7218477,49.344 C79.7218477,49.5786678 79.6551817,49.7413329 79.5218477,49.832 C79.3885137,49.9226671 79.2551817,49.968 79.1218477,49.968 C78.9885137,49.968 78.8525151,49.9466669 78.7138477,49.904 C78.4791799,48.6666605 78.300515,47.1253426 78.1778477,45.28 C78.0551805,43.4346574 77.9831812,42.3893346 77.9618477,42.144 C78.1218485,41.9946659 78.2898469,41.92 78.4658477,41.92 C78.6418486,41.92 78.7991804,41.9413331 78.9378477,41.984 C78.9805146,42.2933349 79.0125143,42.9759947 79.0338477,44.032 C79.0551812,45.0880053 79.0818476,45.749332 79.1138477,46.016 C79.2631818,45.1199955 79.5298458,44.2826706 79.9138477,43.504 C80.1271821,43.0666645 80.4071793,42.7173346 80.7538477,42.456 C81.1005161,42.1946654 81.4738457,42.064 81.8738477,42.064 C82.2738497,42.064 82.6418461,42.2426649 82.9778477,42.6 C83.3138494,42.9573351 83.4818477,43.2799986 83.4818477,43.568 C83.4818477,43.6746672 83.4178484,43.757333 83.2898477,43.816 C83.1618471,43.874667 83.0205152,43.904 82.8658477,43.904 C82.7111803,43.904 82.5911815,43.8453339 82.5058477,43.728 C82.420514,43.6106661 82.3618479,43.4800007 82.3298477,43.336 C82.2978476,43.1919993 82.2285149,43.0613339 82.1218477,42.944 C82.0151805,42.8266661 81.871182,42.768 81.6898477,42.768 C81.2098453,42.768 80.7991828,43.1999957 80.4578477,44.064 C79.9351785,45.3546731 79.6738477,46.8106586 79.6738477,48.432 Z M91.5458477,38.592 C90.5965097,40.458676 89.5031873,42.3199907 88.2658477,44.176 C88.9165177,45.1253381 89.7405094,46.199994 90.7378477,47.4 C91.7351861,48.600006 92.4045127,49.4133312 92.7458477,49.84 C92.735181,49.9573339 92.6498485,50.0559996 92.4898477,50.136 C92.3298469,50.2160004 92.1645153,50.256 91.9938477,50.256 C91.641846,50.256 91.1965171,49.9493364 90.6578477,49.336 C90.1191784,48.7226636 89.5138511,47.920005 88.8418477,46.928 C88.1698444,45.935995 87.7645151,45.3493342 87.6258477,45.168 C87.4445135,45.3813344 87.2045159,45.725331 86.9058477,46.2 C86.6071796,46.674669 86.3111825,47.1359978 86.0178477,47.584 C85.7245129,48.0320022 85.4018495,48.4799978 85.0498477,48.928 C84.697846,49.3760022 84.3085165,49.7359986 83.8818477,50.008 C83.4551789,50.2800014 83.0285165,50.416 82.6018477,50.416 C82.4845138,50.416 82.3938481,50.4106667 82.3298477,50.4 C83.044518,49.5679958 83.6098457,48.9066691 84.0258477,48.416 C85.1885202,47.0186597 86.1805103,45.6693398 87.0018477,44.368 C86.457845,43.6639965 85.8071849,42.8906709 85.0498477,42.048 C84.2925106,41.2053291 83.7351829,40.5626689 83.3778477,40.12 C83.0205126,39.6773311 82.8418477,39.3733342 82.8418477,39.208 C82.8418477,39.0426658 82.9245136,38.922667 83.0898477,38.848 C83.2551819,38.773333 83.4231802,38.736 83.5938477,38.736 C83.8605157,38.736 84.1965124,38.9893308 84.6018477,39.496 C85.0071831,40.0026692 85.4978449,40.6693292 86.0738477,41.496 C86.6498506,42.3226708 87.1565122,42.9599978 87.5938477,43.408 C87.8711825,42.9599978 88.1831793,42.3946701 88.5298477,41.712 C88.8765161,41.0293299 89.1538467,40.4853354 89.3618477,40.08 C89.5698488,39.6746646 89.8285129,39.3146682 90.1378477,39 C90.4471826,38.6853318 90.7671794,38.528 91.0978477,38.528 C91.1831815,38.528 91.3325133,38.5493331 91.5458477,38.592 Z M96.0258477,39.328 C96.0258477,38.8159974 97.8604961,38.56 101.529848,38.56 C102.372519,38.56 103.455174,38.5946663 104.777848,38.664 C106.100521,38.7333337 106.783181,38.8319994 106.825848,38.96 C106.804514,39.4400024 106.361852,39.68 105.497848,39.68 C105.252513,39.68 104.841851,39.6533336 104.265848,39.6 C103.689845,39.5466664 103.196516,39.52 102.785848,39.52 C102.375179,39.52 102.169848,39.6106658 102.169848,39.792 C102.169848,42.0853448 102.116515,45.5039773 102.009848,50.048 C101.785847,50.2080008 101.455183,50.288 101.017848,50.288 C101.007181,49.8186643 101.001848,49.2586699 101.001848,48.608 L101.081848,41.696 C101.081848,40.8639958 101.071181,40.1653362 101.049848,39.6 C100.825847,39.5786666 100.535183,39.568 100.177848,39.568 C99.8205126,39.568 99.2631849,39.597333 98.5058477,39.656 C97.7485106,39.714667 97.2151826,39.744 96.9058477,39.744 C96.3191781,39.744 96.0258477,39.6053347 96.0258477,39.328 Z M107.129848,48.432 L107.177848,49.344 C107.177848,49.5786678 107.111182,49.7413329 106.977848,49.832 C106.844514,49.9226671 106.711182,49.968 106.577848,49.968 C106.444514,49.968 106.308515,49.9466669 106.169848,49.904 C105.93518,48.6666605 105.756515,47.1253426 105.633848,45.28 C105.51118,43.4346574 105.439181,42.3893346 105.417848,42.144 C105.577849,41.9946659 105.745847,41.92 105.921848,41.92 C106.097849,41.92 106.25518,41.9413331 106.393848,41.984 C106.436515,42.2933349 106.468514,42.9759947 106.489848,44.032 C106.511181,45.0880053 106.537848,45.749332 106.569848,46.016 C106.719182,45.1199955 106.985846,44.2826706 107.369848,43.504 C107.583182,43.0666645 107.863179,42.7173346 108.209848,42.456 C108.556516,42.1946654 108.929846,42.064 109.329848,42.064 C109.72985,42.064 110.097846,42.2426649 110.433848,42.6 C110.769849,42.9573351 110.937848,43.2799986 110.937848,43.568 C110.937848,43.6746672 110.873848,43.757333 110.745848,43.816 C110.617847,43.874667 110.476515,43.904 110.321848,43.904 C110.16718,43.904 110.047182,43.8453339 109.961848,43.728 C109.876514,43.6106661 109.817848,43.4800007 109.785848,43.336 C109.753848,43.1919993 109.684515,43.0613339 109.577848,42.944 C109.471181,42.8266661 109.327182,42.768 109.145848,42.768 C108.665845,42.768 108.255183,43.1999957 107.913848,44.064 C107.391178,45.3546731 107.129848,46.8106586 107.129848,48.432 Z M116.793848,45.392 L116.713848,47.232 C116.713848,48.1600046 116.820513,48.7839984 117.033848,49.104 C117.161848,49.3173344 117.337847,49.424 117.561848,49.424 C117.625848,49.424 117.716514,49.4080002 117.833848,49.376 C118.057849,49.3119997 118.244514,49.3439994 118.393848,49.472 C118.319181,49.8453352 117.945851,50.032 117.273848,50.032 C116.815179,50.032 116.511182,49.8400019 116.361848,49.456 C116.244514,49.1679986 116.159181,48.8080022 116.105848,48.376 C116.052514,47.9439978 116.009848,47.6480008 115.977848,47.488 C115.284511,48.8106733 114.612518,49.6159986 113.961848,49.904 C113.631179,50.0533341 113.247183,50.128 112.809848,50.128 C112.372512,50.128 112.033849,49.9173354 111.793848,49.496 C111.553847,49.0746646 111.433848,48.4586707 111.433848,47.648 C111.433848,46.8373293 111.56718,45.9866711 111.833848,45.096 C112.100516,44.2053289 112.489845,43.4533364 113.001848,42.84 C113.51385,42.2266636 114.073845,41.92 114.681848,41.92 C115.556519,41.92 116.137846,42.282663 116.425848,43.008 C116.671182,43.6266698 116.793848,44.4213285 116.793848,45.392 Z M112.873848,44.88 C112.724514,45.4560029 112.612515,46.0026641 112.537848,46.52 C112.463181,47.0373359 112.425848,47.495998 112.425848,47.896 C112.425848,48.296002 112.508514,48.6399986 112.673848,48.928 C112.839182,49.2160014 113.05518,49.36 113.321848,49.36 C113.897851,49.36 114.452512,48.8160054 114.985848,47.728 C115.519184,46.6399946 115.785848,45.6266714 115.785848,44.688 C115.785848,44.079997 115.625849,43.5786686 115.305848,43.184 C115.092513,42.9279987 114.812516,42.8 114.465848,42.8 C114.119179,42.8 113.804516,42.999998 113.521848,43.4 C113.23918,43.800002 113.023182,44.2933304 112.873848,44.88 Z M118.169848,42.304 C118.265848,42.1013323 118.473846,42 118.793848,42 C118.932515,42 119.049847,42.0319997 119.145848,42.096 C119.444516,42.9173374 119.737846,43.7439958 120.025848,44.576 C120.56985,46.101341 121.076512,47.3066622 121.545848,48.192 C121.769849,46.8906602 122.204511,45.5786733 122.849848,44.256 C123.495184,42.9333267 124.084512,42.272 124.617848,42.272 C124.777849,42.272 124.937847,42.309333 125.097848,42.384 C123.871175,43.9946747 122.991184,46.1279867 122.457848,48.784 C122.351181,49.4026698 122.233848,49.7546662 122.105848,49.84 C121.96718,49.9360005 121.823182,49.984 121.673848,49.984 C121.524514,49.984 121.409848,49.9520003 121.329848,49.888 C121.249847,49.8239997 121.191181,49.7600003 121.153848,49.696 C121.116514,49.6319997 121.068515,49.5253341 121.009848,49.376 C120.951181,49.2266659 120.905848,49.1253336 120.873848,49.072 C119.785842,47.0346565 118.884518,44.778679 118.169848,42.304 Z M126.601848,46.752 C126.580514,46.9653344 126.569848,47.109333 126.569848,47.184 C126.569848,47.8240032 126.764512,48.3199982 127.153848,48.672 C127.543183,49.0240018 128.004512,49.2 128.537848,49.2 C129.071184,49.2 129.505846,49.1253341 129.841848,48.976 C130.177849,48.8266659 130.420514,48.6666675 130.569848,48.496 C130.95385,48.0159976 131.305846,47.776 131.625848,47.776 C131.743182,47.776 131.881847,47.8079997 132.041848,47.872 C131.935181,48.3946693 131.532518,48.8719978 130.833848,49.304 C130.135178,49.7360022 129.257853,49.952 128.201848,49.952 C127.455177,49.952 126.812517,49.714669 126.273848,49.24 C125.735178,48.765331 125.465848,48.1173374 125.465848,47.296 C125.465848,46.4746626 125.628513,45.6773372 125.953848,44.904 C126.279183,44.1306628 126.748511,43.4693361 127.361848,42.92 C127.975184,42.3706639 128.599178,42.096 129.233848,42.096 C129.868518,42.096 130.380512,42.2266654 130.769848,42.488 C131.159183,42.7493346 131.353848,43.1306642 131.353848,43.632 C131.353848,44.5600046 130.940519,45.3253303 130.113848,45.928 C129.287177,46.5306697 128.409852,46.832 127.481848,46.832 C127.236513,46.832 126.943183,46.8053336 126.601848,46.752 Z M127.817848,46.224 C128.319184,46.224 128.767179,46.0640016 129.161848,45.744 C129.556516,45.4239984 129.836514,45.0880018 130.001848,44.736 C130.167182,44.3839982 130.249848,44.0640014 130.249848,43.776 C130.249848,43.4879986 130.137849,43.2346678 129.913848,43.016 C129.689847,42.7973322 129.428516,42.688 129.129848,42.688 C128.596512,42.688 128.103183,43.0559963 127.649848,43.792 C127.196512,44.5280037 126.873849,45.2906627 126.681848,46.08 C127.151183,46.1760005 127.529846,46.224 127.817848,46.224 Z M133.881848,40.432 C133.881848,39.3759947 133.737849,38.6666685 133.449848,38.304 C133.588515,38.1013323 133.828513,38 134.169848,38 C134.233848,38 134.303181,38.0053333 134.377848,38.016 C134.644516,38.282668 134.777848,39.0559936 134.777848,40.336 C134.777848,41.0293368 134.745848,41.8346621 134.681848,42.752 C134.553847,44.352008 134.489848,45.5253296 134.489848,46.272 C134.489848,48.2880101 134.879177,49.296 135.657848,49.296 L136.249848,49.184 C136.345848,49.184 136.425847,49.2266662 136.489848,49.312 C136.457848,49.6960019 136.145851,49.888 135.553848,49.888 C134.961845,49.888 134.505849,49.7093351 134.185848,49.352 C133.865846,48.9946649 133.665848,48.5466694 133.585848,48.008 C133.505847,47.4693306 133.465848,47.0240018 133.465848,46.672 C133.465848,46.3199982 133.471181,45.9333354 133.481848,45.512 C133.492514,45.0906646 133.540514,44.4853373 133.625848,43.696 C133.796515,42.095992 133.881848,41.0080029 133.881848,40.432 Z M141.657848,45.84 C141.657848,46.1173347 141.79118,46.3466658 142.057848,46.528 C142.324516,46.7093342 142.60718,46.8 142.905848,46.8 C143.204516,46.8 143.48718,46.7253341 143.753848,46.576 C144.020516,46.4266659 144.268513,46.352 144.497848,46.352 C144.727182,46.352 144.841848,46.4213326 144.841848,46.56 C144.841848,46.7626677 144.628517,46.9573324 144.201848,47.144 C143.775179,47.3306676 143.380516,47.4453331 143.017848,47.488 C143.028514,47.7333346 143.071181,48.4106611 143.145848,49.52 C143.135181,49.6266672 143.047182,49.7146663 142.881848,49.784 C142.716514,49.8533337 142.596515,49.888 142.521848,49.888 C142.28718,49.888 142.159181,49.8560003 142.137848,49.792 C142.041847,48.6186608 141.993848,47.8240021 141.993848,47.408 C141.577846,47.3013328 141.239182,47.1173346 140.977848,46.856 C140.716513,46.5946654 140.585848,46.3040016 140.585848,45.984 C140.585848,45.4399973 140.895178,44.9546688 141.513848,44.528 C141.151179,44.3466658 140.969848,44.0640019 140.969848,43.68 C140.969848,43.1039971 141.252512,42.6613349 141.817848,42.352 C141.721847,42.0213317 141.673848,41.6720018 141.673848,41.304 C141.673848,40.9359982 141.753847,40.5440021 141.913848,40.128 C141.935181,40.0746664 142.03118,40.0266669 142.201848,39.984 C142.372515,39.9413331 142.52718,39.92 142.665848,39.92 C142.804515,39.92 142.884514,39.9253333 142.905848,39.936 C142.756514,40.3413354 142.681848,40.7199982 142.681848,41.072 C142.681848,41.4240018 142.729847,41.7493318 142.825848,42.048 C143.401851,42.048 143.689848,42.1386658 143.689848,42.32 C143.689848,42.4266672 143.625848,42.5306662 143.497848,42.632 C143.369847,42.7333338 143.233848,42.784 143.089848,42.784 C142.945847,42.784 142.825848,42.7893333 142.729848,42.8 C142.633847,42.8106667 142.521848,42.8373331 142.393848,42.88 C142.148513,42.9653338 142.025848,43.1679984 142.025848,43.488 C142.025848,43.6586675 142.092514,43.7893329 142.225848,43.88 C142.359182,43.9706671 142.505847,44.0266666 142.665848,44.048 C143.092517,44.0906669 143.305848,44.1653328 143.305848,44.272 C143.305848,44.4426675 143.217849,44.5679996 143.041848,44.648 C142.865847,44.7280004 142.735182,44.768 142.649848,44.768 C142.564514,44.768 142.495181,44.7626667 142.441848,44.752 C142.20718,44.7840002 142.017848,44.9013323 141.873848,45.104 C141.729847,45.3066677 141.657848,45.5519986 141.657848,45.84 Z M159.433848,49.92 C159.26318,50.1546678 159.017849,50.272 158.697848,50.272 C158.612514,50.272 158.527182,50.2613334 158.441848,50.24 C158.20718,49.706664 158.033848,48.9520049 157.921848,47.976 C157.809847,46.9999951 157.727181,46.3573349 157.673848,46.048 C156.511175,46.0053331 155.34852,45.984 154.185848,45.984 C153.023175,45.984 151.983186,46.0319995 151.065848,46.128 C150.969847,46.5653355 150.865848,47.2186623 150.753848,48.088 C150.641847,48.9573377 150.559181,49.5413318 150.505848,49.84 C150.121846,50.1493349 149.775183,50.1920011 149.465848,49.968 C149.497848,49.7119987 149.545847,49.3066694 149.609848,48.752 C149.673848,48.1973306 149.729848,47.7253353 149.777848,47.336 C149.825848,46.9466647 149.897847,46.4533363 149.993848,45.856 C150.089848,45.2586637 150.183181,44.7440022 150.273848,44.312 C150.364515,43.8799978 150.489847,43.3946694 150.649848,42.856 C150.809849,42.3173306 150.97518,41.8560019 151.145848,41.472 C151.316515,41.0879981 151.52718,40.6986686 151.777848,40.304 C152.028516,39.9093314 152.297846,39.5893346 152.585848,39.344 C153.247184,38.7999973 153.967177,38.528 154.745848,38.528 C155.524518,38.528 156.172512,38.8266637 156.689848,39.424 C157.207184,40.0213363 157.59918,40.8053285 157.865848,41.776 C158.132516,42.7466715 158.345847,43.7226618 158.505848,44.704 C158.665849,45.6853382 158.820514,46.6879949 158.969848,47.712 C159.119182,48.7360051 159.273847,49.4719978 159.433848,49.92 Z M156.457848,41.04 C156.25518,40.5173307 155.993849,40.1093348 155.673848,39.816 C155.353846,39.5226652 154.959183,39.376 154.489848,39.376 C154.020512,39.376 153.567183,39.605331 153.129848,40.064 C152.692512,40.522669 152.345849,41.0933299 152.089848,41.776 C151.631179,43.0453397 151.343182,44.2186613 151.225848,45.296 C152.29252,45.1786661 153.364509,45.12 154.441848,45.12 C155.519186,45.12 156.559176,45.1519997 157.561848,45.216 C157.519181,45.0559992 157.439182,44.6773363 157.321848,44.08 C157.204514,43.4826637 157.084515,42.9573356 156.961848,42.504 C156.83918,42.0506644 156.671182,41.5626693 156.457848,41.04 Z M166.921848,37.184 C166.516512,40.8533517 166.313848,43.4693255 166.313848,45.032 C166.313848,46.5946745 166.457846,48.1546589 166.745848,49.712 C166.532513,49.9253344 166.345849,50.032 166.185848,50.032 C166.025847,50.032 165.892515,50.0106669 165.785848,49.968 C165.561847,49.1786627 165.428515,48.3200046 165.385848,47.392 C165.129846,47.7973354 164.940515,48.0853325 164.817848,48.256 C164.69518,48.4266675 164.484516,48.6773317 164.185848,49.008 C163.641845,49.6480032 162.996518,49.968 162.249848,49.968 C161.684512,49.968 161.276516,49.7040026 161.025848,49.176 C160.77518,48.6479974 160.649848,47.9706708 160.649848,47.144 C160.649848,46.3173292 160.74318,45.5280038 160.929848,44.776 C161.116515,44.0239962 161.439179,43.3733361 161.897848,42.824 C162.356517,42.2746639 162.921844,42 163.593848,42 C163.999183,42 164.372513,42.0853325 164.713848,42.256 C165.055183,42.4266675 165.289847,42.6559986 165.417848,42.944 C165.439181,42.6559986 165.460514,42.2133363 165.481848,41.616 C165.503181,41.0186637 165.527181,40.4880023 165.553848,40.024 C165.580515,39.5599977 165.625847,39.0880024 165.689848,38.608 C165.807182,37.5839949 166.068512,37.072 166.473848,37.072 C166.612515,37.072 166.761847,37.109333 166.921848,37.184 Z M165.049848,43.52 C164.921847,43.2853322 164.745849,43.1120006 164.521848,43 C164.297847,42.8879994 164.00185,42.832 163.633848,42.832 C163.265846,42.832 162.921849,43.0399979 162.601848,43.456 C161.972511,44.2773374 161.657848,45.4666589 161.657848,47.024 C161.657848,47.5253358 161.737847,48.0239975 161.897848,48.52 C162.057849,49.0160025 162.292513,49.264 162.601848,49.264 C163.04985,49.264 163.487179,48.9706696 163.913848,48.384 C164.340517,47.7973304 164.67118,47.1226705 164.905848,46.36 C165.140516,45.5973295 165.257848,44.912003 165.257848,44.304 C165.257848,44.0159986 165.188515,43.7546678 165.049848,43.52 Z M167.721848,42.304 C167.817848,42.1013323 168.025846,42 168.345848,42 C168.484515,42 168.601847,42.0319997 168.697848,42.096 C168.996516,42.9173374 169.289846,43.7439958 169.577848,44.576 C170.12185,46.101341 170.628512,47.3066622 171.097848,48.192 C171.321849,46.8906602 171.756511,45.5786733 172.401848,44.256 C173.047184,42.9333267 173.636512,42.272 174.169848,42.272 C174.329849,42.272 174.489847,42.309333 174.649848,42.384 C173.423175,43.9946747 172.543184,46.1279867 172.009848,48.784 C171.903181,49.4026698 171.785848,49.7546662 171.657848,49.84 C171.51918,49.9360005 171.375182,49.984 171.225848,49.984 C171.076514,49.984 170.961848,49.9520003 170.881848,49.888 C170.801847,49.8239997 170.743181,49.7600003 170.705848,49.696 C170.668514,49.6319997 170.620515,49.5253341 170.561848,49.376 C170.503181,49.2266659 170.457848,49.1253336 170.425848,49.072 C169.337842,47.0346565 168.436518,44.778679 167.721848,42.304 Z M176.153848,46.752 C176.132514,46.9653344 176.121848,47.109333 176.121848,47.184 C176.121848,47.8240032 176.316512,48.3199982 176.705848,48.672 C177.095183,49.0240018 177.556512,49.2 178.089848,49.2 C178.623184,49.2 179.057846,49.1253341 179.393848,48.976 C179.729849,48.8266659 179.972514,48.6666675 180.121848,48.496 C180.50585,48.0159976 180.857846,47.776 181.177848,47.776 C181.295182,47.776 181.433847,47.8079997 181.593848,47.872 C181.487181,48.3946693 181.084518,48.8719978 180.385848,49.304 C179.687178,49.7360022 178.809853,49.952 177.753848,49.952 C177.007177,49.952 176.364517,49.714669 175.825848,49.24 C175.287178,48.765331 175.017848,48.1173374 175.017848,47.296 C175.017848,46.4746626 175.180513,45.6773372 175.505848,44.904 C175.831183,44.1306628 176.300511,43.4693361 176.913848,42.92 C177.527184,42.3706639 178.151178,42.096 178.785848,42.096 C179.420518,42.096 179.932512,42.2266654 180.321848,42.488 C180.711183,42.7493346 180.905848,43.1306642 180.905848,43.632 C180.905848,44.5600046 180.492519,45.3253303 179.665848,45.928 C178.839177,46.5306697 177.961852,46.832 177.033848,46.832 C176.788513,46.832 176.495183,46.8053336 176.153848,46.752 Z M177.369848,46.224 C177.871184,46.224 178.319179,46.0640016 178.713848,45.744 C179.108516,45.4239984 179.388514,45.0880018 179.553848,44.736 C179.719182,44.3839982 179.801848,44.0640014 179.801848,43.776 C179.801848,43.4879986 179.689849,43.2346678 179.465848,43.016 C179.241847,42.7973322 178.980516,42.688 178.681848,42.688 C178.148512,42.688 177.655183,43.0559963 177.201848,43.792 C176.748512,44.5280037 176.425849,45.2906627 176.233848,46.08 C176.703183,46.1760005 177.081846,46.224 177.369848,46.224 Z M189.481848,49.552 C189.289847,49.7546677 189.071182,49.856 188.825848,49.856 C188.367179,49.856 188.025849,49.6106691 187.801848,49.12 C187.577847,48.6293309 187.447181,48.0320035 187.409848,47.328 C187.372514,46.6239965 187.348514,45.9200035 187.337848,45.216 C187.327181,44.5119965 187.271182,43.9146691 187.169848,43.424 C187.068514,42.9333309 186.879182,42.688 186.601848,42.688 C186.228513,42.688 185.911182,43.0239966 185.649848,43.696 C185.388513,44.3680034 185.204515,45.1146626 185.097848,45.936 C184.79918,48.2293448 184.511182,49.5146653 184.233848,49.792 C184.041847,49.8880005 183.876515,49.936 183.737848,49.936 C183.59918,49.936 183.481848,49.9200002 183.385848,49.888 C183.161847,48.9066618 183.017848,47.216012 182.953848,44.816 C182.932514,43.6213274 182.911181,42.8480018 182.889848,42.496 C183.113849,42.3466659 183.305847,42.272 183.465848,42.272 C183.625849,42.272 183.753847,42.2879998 183.849848,42.32 C183.903181,42.778669 183.932514,43.7173262 183.937848,45.136 C183.943181,46.5546738 183.951181,47.3706656 183.961848,47.584 C184.015181,47.3599989 184.081847,46.9973358 184.161848,46.496 C184.241848,45.9946642 184.313847,45.581335 184.377848,45.256 C184.441848,44.930665 184.54318,44.5493355 184.681848,44.112 C184.820515,43.6746645 184.97518,43.3253346 185.145848,43.064 C185.316515,42.8026654 185.55118,42.5786676 185.849848,42.392 C186.148516,42.2053324 186.484513,42.112 186.857848,42.112 C187.359184,42.112 187.724513,42.3386644 187.953848,42.792 C188.183182,43.2453356 188.308514,43.8079966 188.329848,44.48 C188.351181,45.1520034 188.364514,45.8346632 188.369848,46.528 C188.375181,47.2213368 188.460514,47.8559971 188.625848,48.432 C188.791182,49.0080029 189.076512,49.3813325 189.481848,49.552 Z M190.537848,43.296 C190.057845,43.296 189.732515,43.1786678 189.561848,42.944 C189.561848,42.7733325 189.633847,42.6400005 189.777848,42.544 C189.921848,42.4479995 190.07918,42.3866668 190.249848,42.36 C190.420515,42.3333332 190.697846,42.3093334 191.081848,42.288 C191.113848,41.9999986 191.132514,41.6293356 191.137848,41.176 C191.143181,40.7226644 191.151181,40.3360016 191.161848,40.016 C191.193848,39.1733291 191.321847,38.656001 191.545848,38.464 C191.641848,38.3786662 191.745847,38.336 191.857848,38.336 C191.969848,38.336 192.068514,38.3466666 192.153848,38.368 C192.185848,39.1360038 192.201848,39.5999992 192.201848,39.76 L192.105848,42.16 C192.127181,42.1706667 192.185847,42.176 192.281848,42.176 L193.433848,42.128 C194.265852,42.128 194.681848,42.2559987 194.681848,42.512 C194.681848,42.8746685 194.532516,43.0879997 194.233848,43.152 C194.09518,43.1840002 193.932515,43.2 193.745848,43.2 C193.55918,43.2 193.319183,43.1760002 193.025848,43.128 C192.732513,43.0799998 192.521848,43.056 192.393848,43.056 C192.265847,43.056 192.180515,43.0613333 192.137848,43.072 C192.105848,43.3813349 192.089848,43.6879985 192.089848,43.992 C192.089848,44.2960015 192.097848,44.6746644 192.113848,45.128 C192.129848,45.5813356 192.172514,46.1226635 192.241848,46.752 C192.311181,47.3813365 192.46318,47.9226644 192.697848,48.376 C192.932516,48.8293356 193.231179,49.056 193.593848,49.056 C193.775182,49.056 193.988513,48.9840007 194.233848,48.84 C194.479182,48.6959993 194.668514,48.624 194.801848,48.624 C194.935182,48.624 195.052514,48.653333 195.153848,48.712 C195.255182,48.770667 195.305848,48.837333 195.305848,48.912 C195.305848,49.1360011 195.079183,49.351999 194.625848,49.56 C194.172512,49.768001 193.785849,49.872 193.465848,49.872 C192.292509,49.872 191.561849,48.7626778 191.273848,46.544 C191.188514,45.9039968 191.124515,44.8053411 191.081848,43.248 C190.91118,43.2800002 190.729849,43.296 190.537848,43.296 Z M197.561848,42.496 C197.284513,43.0186693 197.145848,43.7973282 197.145848,44.832 C197.145848,46.3893411 197.439178,47.6319954 198.025848,48.56 C198.367183,49.1040027 198.775179,49.376 199.249848,49.376 C199.724517,49.376 200.105846,49.1253358 200.393848,48.624 C200.735183,48.0053302 200.905848,47.1520054 200.905848,46.064 C200.905848,44.6986598 200.71385,43.6906699 200.329848,43.04 C200.15918,42.7306651 200.060515,42.5066674 200.033848,42.368 C200.007181,42.2293326 200.041847,42.1280003 200.137848,42.064 C200.233848,41.9999997 200.393847,41.968 200.617848,41.968 C201.268518,41.968 201.69518,42.6399933 201.897848,43.984 C201.961848,44.3573352 201.993848,44.7306648 201.993848,45.104 C201.993848,46.0746715 201.80185,47.0453285 201.417848,48.016 C200.873845,49.34934 200.015187,50.016 198.841848,50.016 C198.223178,50.016 197.695183,49.786669 197.257848,49.328 C196.43651,48.453329 196.025848,47.1360088 196.025848,45.376 C196.025848,44.6079962 196.079181,44.0213354 196.185848,43.616 C196.292515,43.2106646 196.383181,42.9466673 196.457848,42.824 C196.532515,42.7013327 196.623181,42.5866672 196.729848,42.48 C196.836515,42.3733328 196.956514,42.3306666 197.089848,42.352 C197.223182,42.3733334 197.380514,42.421333 197.561848,42.496 Z M205.145848,48.432 L205.193848,49.344 C205.193848,49.5786678 205.127182,49.7413329 204.993848,49.832 C204.860514,49.9226671 204.727182,49.968 204.593848,49.968 C204.460514,49.968 204.324515,49.9466669 204.185848,49.904 C203.95118,48.6666605 203.772515,47.1253426 203.649848,45.28 C203.52718,43.4346574 203.455181,42.3893346 203.433848,42.144 C203.593849,41.9946659 203.761847,41.92 203.937848,41.92 C204.113849,41.92 204.27118,41.9413331 204.409848,41.984 C204.452515,42.2933349 204.484514,42.9759947 204.505848,44.032 C204.527181,45.0880053 204.553848,45.749332 204.585848,46.016 C204.735182,45.1199955 205.001846,44.2826706 205.385848,43.504 C205.599182,43.0666645 205.879179,42.7173346 206.225848,42.456 C206.572516,42.1946654 206.945846,42.064 207.345848,42.064 C207.74585,42.064 208.113846,42.2426649 208.449848,42.6 C208.785849,42.9573351 208.953848,43.2799986 208.953848,43.568 C208.953848,43.6746672 208.889848,43.757333 208.761848,43.816 C208.633847,43.874667 208.492515,43.904 208.337848,43.904 C208.18318,43.904 208.063182,43.8453339 207.977848,43.728 C207.892514,43.6106661 207.833848,43.4800007 207.801848,43.336 C207.769848,43.1919993 207.700515,43.0613339 207.593848,42.944 C207.487181,42.8266661 207.343182,42.768 207.161848,42.768 C206.681845,42.768 206.271183,43.1999957 205.929848,44.064 C205.407178,45.3546731 205.145848,46.8106586 205.145848,48.432 Z M210.489848,46.752 C210.468514,46.9653344 210.457848,47.109333 210.457848,47.184 C210.457848,47.8240032 210.652512,48.3199982 211.041848,48.672 C211.431183,49.0240018 211.892512,49.2 212.425848,49.2 C212.959184,49.2 213.393846,49.1253341 213.729848,48.976 C214.065849,48.8266659 214.308514,48.6666675 214.457848,48.496 C214.84185,48.0159976 215.193846,47.776 215.513848,47.776 C215.631182,47.776 215.769847,47.8079997 215.929848,47.872 C215.823181,48.3946693 215.420518,48.8719978 214.721848,49.304 C214.023178,49.7360022 213.145853,49.952 212.089848,49.952 C211.343177,49.952 210.700517,49.714669 210.161848,49.24 C209.623178,48.765331 209.353848,48.1173374 209.353848,47.296 C209.353848,46.4746626 209.516513,45.6773372 209.841848,44.904 C210.167183,44.1306628 210.636511,43.4693361 211.249848,42.92 C211.863184,42.3706639 212.487178,42.096 213.121848,42.096 C213.756518,42.096 214.268512,42.2266654 214.657848,42.488 C215.047183,42.7493346 215.241848,43.1306642 215.241848,43.632 C215.241848,44.5600046 214.828519,45.3253303 214.001848,45.928 C213.175177,46.5306697 212.297852,46.832 211.369848,46.832 C211.124513,46.832 210.831183,46.8053336 210.489848,46.752 Z M211.705848,46.224 C212.207184,46.224 212.655179,46.0640016 213.049848,45.744 C213.444516,45.4239984 213.724514,45.0880018 213.889848,44.736 C214.055182,44.3839982 214.137848,44.0640014 214.137848,43.776 C214.137848,43.4879986 214.025849,43.2346678 213.801848,43.016 C213.577847,42.7973322 213.316516,42.688 213.017848,42.688 C212.484512,42.688 211.991183,43.0559963 211.537848,43.792 C211.084512,44.5280037 210.761849,45.2906627 210.569848,46.08 C211.039183,46.1760005 211.417846,46.224 211.705848,46.224 Z M221.321848,49.008 L221.193848,39.648 C221.193848,38.9653299 222.575167,38.624 225.337848,38.624 C226.639188,38.624 227.729843,38.8693309 228.609848,39.36 C229.489852,39.8506691 229.929848,40.5546621 229.929848,41.472 C229.929848,42.080003 229.695183,42.6559973 229.225848,43.2 C228.756512,43.7440027 228.228517,44.0906659 227.641848,44.24 C228.377851,44.4640011 229.015178,44.7893312 229.553848,45.216 C230.092517,45.6426688 230.361848,46.1973299 230.361848,46.88 C230.361848,47.5626701 230.068517,48.1653307 229.481848,48.688 C228.351175,49.680005 226.612526,50.176 224.265848,50.176 C222.303171,50.176 221.321848,49.7866706 221.321848,49.008 Z M222.361848,44.288 C223.023184,44.0319987 223.753844,43.904 224.553848,43.904 L225.673848,43.904 C226.239184,43.904 226.92451,43.6506692 227.729848,43.144 C228.535185,42.6373308 228.937848,42.154669 228.937848,41.696 C228.937848,41.0133299 228.511185,40.472002 227.657848,40.072 C226.80451,39.671998 225.86052,39.472 224.825848,39.472 C223.791176,39.472 222.953851,39.5893322 222.313848,39.824 L222.313848,40.664 C222.313848,41.0320018 222.321848,41.6399958 222.337848,42.488 C222.353848,43.3360042 222.361848,43.9359982 222.361848,44.288 Z M229.193848,46.88 C229.193848,45.9519954 228.191191,45.2746688 226.185848,44.848 C225.161843,45.1466682 224.191186,45.296 223.273848,45.296 C222.97518,45.296 222.681849,45.2800002 222.393848,45.248 C222.425848,46.5173397 222.441848,47.8079934 222.441848,49.12 C223.060518,49.2586674 223.687178,49.328 224.321848,49.328 C224.956518,49.328 225.521845,49.2880004 226.017848,49.208 C226.51385,49.1279996 227.009845,49.0026675 227.505848,48.832 C228.00185,48.6613325 228.40718,48.405335 228.721848,48.064 C229.036516,47.722665 229.193848,47.3280022 229.193848,46.88 Z M232.521848,40.432 C232.521848,39.3759947 232.377849,38.6666685 232.089848,38.304 C232.228515,38.1013323 232.468513,38 232.809848,38 C232.873848,38 232.943181,38.0053333 233.017848,38.016 C233.284516,38.282668 233.417848,39.0559936 233.417848,40.336 C233.417848,41.0293368 233.385848,41.8346621 233.321848,42.752 C233.193847,44.352008 233.129848,45.5253296 233.129848,46.272 C233.129848,48.2880101 233.519177,49.296 234.297848,49.296 L234.889848,49.184 C234.985848,49.184 235.065847,49.2266662 235.129848,49.312 C235.097848,49.6960019 234.785851,49.888 234.193848,49.888 C233.601845,49.888 233.145849,49.7093351 232.825848,49.352 C232.505846,48.9946649 232.305848,48.5466694 232.225848,48.008 C232.145847,47.4693306 232.105848,47.0240018 232.105848,46.672 C232.105848,46.3199982 232.111181,45.9333354 232.121848,45.512 C232.132514,45.0906646 232.180514,44.4853373 232.265848,43.696 C232.436515,42.095992 232.521848,41.0080029 232.521848,40.432 Z M236.345848,43.36 C236.88985,42.5279958 237.673843,42.112 238.697848,42.112 C239.721853,42.112 240.540511,42.5279958 241.153848,43.36 C241.767184,44.1920042 242.073848,45.1386614 242.073848,46.2 C242.073848,47.2613386 241.737851,48.1599963 241.065848,48.896 C240.393844,49.6320037 239.54052,50 238.505848,50 C237.471176,50 236.719183,49.7093362 236.249848,49.128 C235.780512,48.5466638 235.545848,47.7280053 235.545848,46.672 C235.545848,45.2959931 235.812512,44.1920042 236.345848,43.36 Z M237.049848,44.208 C236.91118,44.6240021 236.807181,45.0399979 236.737848,45.456 C236.668514,45.8720021 236.633848,46.2586649 236.633848,46.616 C236.633848,46.9733351 236.660514,47.2986652 236.713848,47.592 C236.767181,47.8853348 236.857847,48.1733319 236.985848,48.456 C237.113848,48.7386681 237.305846,48.9626658 237.561848,49.128 C237.817849,49.2933342 238.121846,49.376 238.473848,49.376 C239.188518,49.376 239.788512,49.0826696 240.273848,48.496 C240.759184,47.9093304 241.001848,47.2000042 241.001848,46.368 C241.001848,45.5359958 240.780517,44.7280039 240.337848,43.944 C239.895179,43.1599961 239.353851,42.768 238.713848,42.768 C238.329846,42.768 237.993849,42.901332 237.705848,43.168 C237.417846,43.434668 237.199182,43.7813312 237.049848,44.208 Z M246.441848,42 C247.412519,42 248.084513,42.3946627 248.457848,43.184 C248.660515,43.6000021 248.825847,43.9946648 248.953848,44.368 C249.081848,44.7413352 249.167181,45.2533301 249.209848,45.904 C249.273848,46.896005 249.305848,48.0239937 249.305848,49.288 C249.305848,50.5520063 249.004517,51.5599962 248.401848,52.312 C247.799178,53.0640038 246.919187,53.44 245.761848,53.44 C244.604509,53.44 243.641852,53.0666704 242.873848,52.32 C243.087182,52.1066656 243.31918,52 243.569848,52 C243.820516,52 244.167179,52.1093322 244.609848,52.328 C245.052517,52.5466678 245.524512,52.656 246.025848,52.656 C246.527184,52.656 246.943179,52.5413345 247.273848,52.312 C247.604516,52.0826655 247.849847,51.7600021 248.009848,51.344 C248.276516,50.6079963 248.409848,49.7013387 248.409848,48.624 C248.409848,48.4639992 248.393848,47.8720051 248.361848,46.848 C248.073846,47.722671 247.663184,48.4453305 247.129848,49.016 C246.596512,49.5866695 245.993851,49.872 245.321848,49.872 C244.649844,49.872 244.156516,49.5706697 243.841848,48.968 C243.52718,48.3653303 243.369848,47.6800038 243.369848,46.912 C243.369848,46.1439962 243.476513,45.3946703 243.689848,44.664 C243.903182,43.9333297 244.249845,43.3066693 244.729848,42.784 C245.20985,42.2613307 245.780511,42 246.441848,42 Z M244.745848,44.432 C244.60718,44.9013357 244.505848,45.3439979 244.441848,45.76 C244.377847,46.1760021 244.345848,46.5946646 244.345848,47.016 C244.345848,47.4373354 244.433847,47.9039974 244.609848,48.416 C244.785849,48.9280026 245.044513,49.184 245.385848,49.184 C246.057851,49.184 246.655178,48.680005 247.177848,47.672 C247.700517,46.663995 247.961848,45.6480051 247.961848,44.624 C247.961848,44.2719982 247.799183,43.8746689 247.473848,43.432 C247.148513,42.9893311 246.740517,42.768 246.249848,42.768 C245.908513,42.768 245.607182,42.9279984 245.345848,43.248 C245.084513,43.5680016 244.884515,43.9626643 244.745848,44.432 Z M253.561848,39.328 C253.561848,38.8159974 255.396496,38.56 259.065848,38.56 C259.908519,38.56 260.991174,38.5946663 262.313848,38.664 C263.636521,38.7333337 264.319181,38.8319994 264.361848,38.96 C264.340514,39.4400024 263.897852,39.68 263.033848,39.68 C262.788513,39.68 262.377851,39.6533336 261.801848,39.6 C261.225845,39.5466664 260.732516,39.52 260.321848,39.52 C259.911179,39.52 259.705848,39.6106658 259.705848,39.792 C259.705848,42.0853448 259.652515,45.5039773 259.545848,50.048 C259.321847,50.2080008 258.991183,50.288 258.553848,50.288 C258.543181,49.8186643 258.537848,49.2586699 258.537848,48.608 L258.617848,41.696 C258.617848,40.8639958 258.607181,40.1653362 258.585848,39.6 C258.361847,39.5786666 258.071183,39.568 257.713848,39.568 C257.356513,39.568 256.799185,39.597333 256.041848,39.656 C255.284511,39.714667 254.751183,39.744 254.441848,39.744 C253.855178,39.744 253.561848,39.6053347 253.561848,39.328 Z M263.561848,46.752 C263.540514,46.9653344 263.529848,47.109333 263.529848,47.184 C263.529848,47.8240032 263.724512,48.3199982 264.113848,48.672 C264.503183,49.0240018 264.964512,49.2 265.497848,49.2 C266.031184,49.2 266.465846,49.1253341 266.801848,48.976 C267.137849,48.8266659 267.380514,48.6666675 267.529848,48.496 C267.91385,48.0159976 268.265846,47.776 268.585848,47.776 C268.703182,47.776 268.841847,47.8079997 269.001848,47.872 C268.895181,48.3946693 268.492518,48.8719978 267.793848,49.304 C267.095178,49.7360022 266.217853,49.952 265.161848,49.952 C264.415177,49.952 263.772517,49.714669 263.233848,49.24 C262.695178,48.765331 262.425848,48.1173374 262.425848,47.296 C262.425848,46.4746626 262.588513,45.6773372 262.913848,44.904 C263.239183,44.1306628 263.708511,43.4693361 264.321848,42.92 C264.935184,42.3706639 265.559178,42.096 266.193848,42.096 C266.828518,42.096 267.340512,42.2266654 267.729848,42.488 C268.119183,42.7493346 268.313848,43.1306642 268.313848,43.632 C268.313848,44.5600046 267.900519,45.3253303 267.073848,45.928 C266.247177,46.5306697 265.369852,46.832 264.441848,46.832 C264.196513,46.832 263.903183,46.8053336 263.561848,46.752 Z M264.777848,46.224 C265.279184,46.224 265.727179,46.0640016 266.121848,45.744 C266.516516,45.4239984 266.796514,45.0880018 266.961848,44.736 C267.127182,44.3839982 267.209848,44.0640014 267.209848,43.776 C267.209848,43.4879986 267.097849,43.2346678 266.873848,43.016 C266.649847,42.7973322 266.388516,42.688 266.089848,42.688 C265.556512,42.688 265.063183,43.0559963 264.609848,43.792 C264.156512,44.5280037 263.833849,45.2906627 263.641848,46.08 C264.111183,46.1760005 264.489846,46.224 264.777848,46.224 Z M271.065848,43.008 C271.183182,43.008 271.241848,43.711993 271.241848,45.12 C271.241848,45.3440011 271.239181,45.7013309 271.233848,46.192 C271.228514,46.6826691 271.225848,46.9386666 271.225848,46.96 C271.332515,45.7546606 271.441847,44.9333355 271.553848,44.496 C271.665848,44.0586645 271.780514,43.6826682 271.897848,43.368 C272.015182,43.0533318 272.14318,42.8106675 272.281848,42.64 C272.623183,42.2026645 273.017846,41.984 273.465848,41.984 C274.031184,41.984 274.45518,42.2666638 274.737848,42.832 C275.020516,43.3973362 275.167181,44.1493286 275.177848,45.088 C275.444516,43.1573237 276.148509,42.192 277.289848,42.192 C277.780517,42.192 278.12718,42.4426642 278.329848,42.944 C278.532515,43.4453358 278.633848,44.0426632 278.633848,44.736 L278.585848,47.168 C278.585848,48.768008 278.932511,49.568 279.625848,49.568 L280.537848,49.424 C280.591181,49.424 280.644514,49.4293333 280.697848,49.44 C280.591181,49.6000008 280.393849,49.7253329 280.105848,49.816 C279.817846,49.9066671 279.535182,49.952 279.257848,49.952 C278.713845,49.952 278.305849,49.7093358 278.033848,49.224 C277.761846,48.7386642 277.615181,48.2266694 277.593848,47.688 C277.572514,47.1493306 277.561848,46.6880019 277.561848,46.304 L277.593848,44.88 C277.593848,44.4106643 277.564515,43.9626688 277.505848,43.536 C277.447181,43.1093312 277.295182,42.896 277.049848,42.896 C276.687179,42.896 276.337849,43.6559924 276.001848,45.176 C275.665846,46.6960076 275.460515,48.1386598 275.385848,49.504 C275.204514,49.696001 274.975182,49.7973333 274.697848,49.808 C274.612514,49.808 274.532515,49.7920002 274.457848,49.76 C274.361847,49.2053306 274.311181,48.2800065 274.305848,46.984 C274.300514,45.6879935 274.233848,44.6560038 274.105848,43.888 C273.977847,43.1199962 273.68985,42.736 273.241848,42.736 C272.94318,42.736 272.697849,43.0666634 272.505848,43.728 C272.196513,44.7626718 271.919182,46.3733224 271.673848,48.56 C271.609847,49.0720026 271.561848,49.4399989 271.529848,49.664 C271.305847,49.856001 271.076516,49.952 270.841848,49.952 L270.601848,49.92 C270.452514,48.1386578 270.377848,45.9306798 270.377848,43.296 C270.495182,43.103999 270.724513,43.008 271.065848,43.008 Z M281.929848,49.504 C281.961848,50.3680043 282.068514,51.5893254 282.249848,53.168 C282.04718,53.3706677 281.807182,53.472 281.529848,53.472 C281.476514,53.472 281.417848,53.4666667 281.353848,53.456 C281.343181,53.0399979 281.265848,52.0960074 281.121848,50.624 C280.977847,49.1519926 280.905848,48.0240039 280.905848,47.24 C280.905848,46.4559961 280.953847,45.7760029 281.049848,45.2 C281.145848,44.6239971 281.31118,44.0853358 281.545848,43.584 C282.02585,42.5493282 282.911175,42.032 284.201848,42.032 C285.001852,42.032 285.657845,42.469329 286.169848,43.344 C286.68185,44.218671 286.937848,45.2373275 286.937848,46.4 C286.937848,47.3173379 286.639184,48.1226632 286.041848,48.816 C285.444511,49.5093368 284.617853,49.856 283.561848,49.856 C282.911178,49.856 282.367183,49.7386678 281.929848,49.504 Z M284.073848,42.896 C283.167177,42.896 282.564516,43.3653286 282.265848,44.304 C282.009846,45.104004 281.881848,46.207993 281.881848,47.616 C281.881848,48.1280026 281.887181,48.5066654 281.897848,48.752 C282.847186,48.9546677 283.492513,49.056 283.833848,49.056 C284.452518,49.056 284.943179,48.8080025 285.305848,48.312 C285.668516,47.8159975 285.849848,47.2106702 285.849848,46.496 C285.849848,45.4399947 285.692516,44.5760034 285.377848,43.904 C285.06318,43.2319966 284.628517,42.896 284.073848,42.896 Z M289.065848,40.432 C289.065848,39.3759947 288.921849,38.6666685 288.633848,38.304 C288.772515,38.1013323 289.012513,38 289.353848,38 C289.417848,38 289.487181,38.0053333 289.561848,38.016 C289.828516,38.282668 289.961848,39.0559936 289.961848,40.336 C289.961848,41.0293368 289.929848,41.8346621 289.865848,42.752 C289.737847,44.352008 289.673848,45.5253296 289.673848,46.272 C289.673848,48.2880101 290.063177,49.296 290.841848,49.296 L291.433848,49.184 C291.529848,49.184 291.609847,49.2266662 291.673848,49.312 C291.641848,49.6960019 291.329851,49.888 290.737848,49.888 C290.145845,49.888 289.689849,49.7093351 289.369848,49.352 C289.049846,48.9946649 288.849848,48.5466694 288.769848,48.008 C288.689847,47.4693306 288.649848,47.0240018 288.649848,46.672 C288.649848,46.3199982 288.655181,45.9333354 288.665848,45.512 C288.676514,45.0906646 288.724514,44.4853373 288.809848,43.696 C288.980515,42.095992 289.065848,41.0080029 289.065848,40.432 Z M297.401848,45.392 L297.321848,47.232 C297.321848,48.1600046 297.428513,48.7839984 297.641848,49.104 C297.769848,49.3173344 297.945847,49.424 298.169848,49.424 C298.233848,49.424 298.324514,49.4080002 298.441848,49.376 C298.665849,49.3119997 298.852514,49.3439994 299.001848,49.472 C298.927181,49.8453352 298.553851,50.032 297.881848,50.032 C297.423179,50.032 297.119182,49.8400019 296.969848,49.456 C296.852514,49.1679986 296.767181,48.8080022 296.713848,48.376 C296.660514,47.9439978 296.617848,47.6480008 296.585848,47.488 C295.892511,48.8106733 295.220518,49.6159986 294.569848,49.904 C294.239179,50.0533341 293.855183,50.128 293.417848,50.128 C292.980512,50.128 292.641849,49.9173354 292.401848,49.496 C292.161847,49.0746646 292.041848,48.4586707 292.041848,47.648 C292.041848,46.8373293 292.17518,45.9866711 292.441848,45.096 C292.708516,44.2053289 293.097845,43.4533364 293.609848,42.84 C294.12185,42.2266636 294.681845,41.92 295.289848,41.92 C296.164519,41.92 296.745846,42.282663 297.033848,43.008 C297.279182,43.6266698 297.401848,44.4213285 297.401848,45.392 Z M293.481848,44.88 C293.332514,45.4560029 293.220515,46.0026641 293.145848,46.52 C293.071181,47.0373359 293.033848,47.495998 293.033848,47.896 C293.033848,48.296002 293.116514,48.6399986 293.281848,48.928 C293.447182,49.2160014 293.66318,49.36 293.929848,49.36 C294.505851,49.36 295.060512,48.8160054 295.593848,47.728 C296.127184,46.6399946 296.393848,45.6266714 296.393848,44.688 C296.393848,44.079997 296.233849,43.5786686 295.913848,43.184 C295.700513,42.9279987 295.420516,42.8 295.073848,42.8 C294.727179,42.8 294.412516,42.999998 294.129848,43.4 C293.84718,43.800002 293.631182,44.2933304 293.481848,44.88 Z M299.545848,43.296 C299.065845,43.296 298.740515,43.1786678 298.569848,42.944 C298.569848,42.7733325 298.641847,42.6400005 298.785848,42.544 C298.929848,42.4479995 299.08718,42.3866668 299.257848,42.36 C299.428515,42.3333332 299.705846,42.3093334 300.089848,42.288 C300.121848,41.9999986 300.140514,41.6293356 300.145848,41.176 C300.151181,40.7226644 300.159181,40.3360016 300.169848,40.016 C300.201848,39.1733291 300.329847,38.656001 300.553848,38.464 C300.649848,38.3786662 300.753847,38.336 300.865848,38.336 C300.977848,38.336 301.076514,38.3466666 301.161848,38.368 C301.193848,39.1360038 301.209848,39.5999992 301.209848,39.76 L301.113848,42.16 C301.135181,42.1706667 301.193847,42.176 301.289848,42.176 L302.441848,42.128 C303.273852,42.128 303.689848,42.2559987 303.689848,42.512 C303.689848,42.8746685 303.540516,43.0879997 303.241848,43.152 C303.10318,43.1840002 302.940515,43.2 302.753848,43.2 C302.56718,43.2 302.327183,43.1760002 302.033848,43.128 C301.740513,43.0799998 301.529848,43.056 301.401848,43.056 C301.273847,43.056 301.188515,43.0613333 301.145848,43.072 C301.113848,43.3813349 301.097848,43.6879985 301.097848,43.992 C301.097848,44.2960015 301.105848,44.6746644 301.121848,45.128 C301.137848,45.5813356 301.180514,46.1226635 301.249848,46.752 C301.319181,47.3813365 301.47118,47.9226644 301.705848,48.376 C301.940516,48.8293356 302.239179,49.056 302.601848,49.056 C302.783182,49.056 302.996513,48.9840007 303.241848,48.84 C303.487182,48.6959993 303.676514,48.624 303.809848,48.624 C303.943182,48.624 304.060514,48.653333 304.161848,48.712 C304.263182,48.770667 304.313848,48.837333 304.313848,48.912 C304.313848,49.1360011 304.087183,49.351999 303.633848,49.56 C303.180512,49.768001 302.793849,49.872 302.473848,49.872 C301.300509,49.872 300.569849,48.7626778 300.281848,46.544 C300.196514,45.9039968 300.132515,44.8053411 300.089848,43.248 C299.91918,43.2800002 299.737849,43.296 299.545848,43.296 Z M306.073848,46.752 C306.052514,46.9653344 306.041848,47.109333 306.041848,47.184 C306.041848,47.8240032 306.236512,48.3199982 306.625848,48.672 C307.015183,49.0240018 307.476512,49.2 308.009848,49.2 C308.543184,49.2 308.977846,49.1253341 309.313848,48.976 C309.649849,48.8266659 309.892514,48.6666675 310.041848,48.496 C310.42585,48.0159976 310.777846,47.776 311.097848,47.776 C311.215182,47.776 311.353847,47.8079997 311.513848,47.872 C311.407181,48.3946693 311.004518,48.8719978 310.305848,49.304 C309.607178,49.7360022 308.729853,49.952 307.673848,49.952 C306.927177,49.952 306.284517,49.714669 305.745848,49.24 C305.207178,48.765331 304.937848,48.1173374 304.937848,47.296 C304.937848,46.4746626 305.100513,45.6773372 305.425848,44.904 C305.751183,44.1306628 306.220511,43.4693361 306.833848,42.92 C307.447184,42.3706639 308.071178,42.096 308.705848,42.096 C309.340518,42.096 309.852512,42.2266654 310.241848,42.488 C310.631183,42.7493346 310.825848,43.1306642 310.825848,43.632 C310.825848,44.5600046 310.412519,45.3253303 309.585848,45.928 C308.759177,46.5306697 307.881852,46.832 306.953848,46.832 C306.708513,46.832 306.415183,46.8053336 306.073848,46.752 Z M307.289848,46.224 C307.791184,46.224 308.239179,46.0640016 308.633848,45.744 C309.028516,45.4239984 309.308514,45.0880018 309.473848,44.736 C309.639182,44.3839982 309.721848,44.0640014 309.721848,43.776 C309.721848,43.4879986 309.609849,43.2346678 309.385848,43.016 C309.161847,42.7973322 308.900516,42.688 308.601848,42.688 C308.068512,42.688 307.575183,43.0559963 307.121848,43.792 C306.668512,44.5280037 306.345849,45.2906627 306.153848,46.08 C306.623183,46.1760005 307.001846,46.224 307.289848,46.224 Z M14.2658477,21.0414342 L5.44906896,27.1352549 L8.52010243,16.8669058 L2.84217094e-14,10.3647451 L10.7147818,10.1123771 L14.2658477,0 L17.8169136,10.1123771 L28.5316955,10.3647451 L20.0115931,16.8669058 L23.0826265,27.1352549 L14.2658477,21.0414342 Z" id="Combined-Shape" fill="#FFFFFF"></path>
    </g>
</svg>